<?xml version="1.0" encoding="UTF-8" standalone="no"?>
<svg
   xml:space="preserve"
   width="740"
   height="740"
   viewBox="0 0 740 740"
   version="1.1"
   id="svg16"
   sodipodi:docname="logo.svg"
   inkscape:version="1.4.3 (0d15f75042, 2025-12-25)"
   xmlns:inkscape="http://www.inkscape.org/namespaces/inkscape"
   xmlns:sodipodi="http://sodipodi.sourceforge.net/DTD/sodipodi-0.dtd"
   xmlns="http://www.w3.org/2000/svg"
   xmlns:svg="http://www.w3.org/2000/svg"><defs
     id="defs16" /><sodipodi:namedview
     id="namedview16"
     pagecolor="#ffffff"
     bordercolor="#000000"
     borderopacity="0.25"
     inkscape:showpageshadow="2"
     inkscape:pageopacity="0.0"
     inkscape:pagecheckerboard="0"
     inkscape:deskcolor="#d1d1d1"
     inkscape:zoom="0.39459459"
     inkscape:cx="395.34247"
     inkscape:cy="590.47945"
     inkscape:window-width="1536"
     inkscape:window-height="795"
     inkscape:window-x="0"
     inkscape:window-y="0"
     inkscape:window-maximized="1"
     inkscape:current-layer="svg16" /><path
     d="M-4.226 2.104h739.445v739.445H-4.226z"
     style="font-variation-settings:&quot;wght&quot;800;fill:none;fill-opacity:1;stroke:#000;stroke-width:2.85437;stroke-dasharray:none;stroke-opacity:1;stop-color:#000"
     transform="translate(6 1)"
     id="path2" /><text
     xml:space="preserve"
     x="367.314"
     y="394.716"
     style="font-style:normal;font-variant:normal;font-weight:700;font-stretch:normal;font-size:88.1752px;font-family:sans-serif;-inkscape-font-specification:&quot;sans-serif, Bold&quot;;font-variant-ligatures:normal;font-variant-caps:normal;font-variant-numeric:normal;font-variant-east-asian:normal;fill:#ffc42b;fill-opacity:1;stroke:#ffc42b;stroke-width:.257135;stroke-linecap:butt;stroke-linejoin:miter;stroke-miterlimit:4;stroke-dasharray:none;stroke-dashoffset:0;stroke-opacity:1;stop-color:#000"
     transform="matrix(1.05921 0 0 .9441 6 1)"
     id="text2"><tspan
       x="367.314"
       y="394.716"
       style="font-style:normal;font-variant:normal;font-weight:700;font-stretch:normal;font-size:88.1752px;font-family:sans-serif;-inkscape-font-specification:&quot;sans-serif, Bold&quot;;font-variant-ligatures:normal;font-variant-caps:normal;font-variant-numeric:normal;font-variant-east-asian:normal;fill:#ffc42b;fill-opacity:1;stroke-width:.257135;stroke-dasharray:none"
       id="tspan2">Nitya</tspan></text><path
     d="M825.135 386.546c-.335.047-.718.52-1.492 1.468-1.698 2.078-6.158 6.458-7.423 7.29-3.11 2.048-6.383 1.978-12.978-.276-4.328-1.48-4.256-1.476-4.452-.258-1.688 10.513-3.713 13.695-10.012 15.736-1.54.499-6.875 1.603-8.68 1.797-.19.02.054 1.079.634 2.744 2.066 5.938 2.567 10.705 1.388 13.22-1.241 2.65-4.357 6.167-7.684 8.673-.697.526-1.272 1.089-1.276 1.252s.886 1.01 1.98 1.88c7.991 6.358 9.111 10.067 5.932 19.64-.825 2.482-1.197 3.863-1.074 3.986.103.103 1.084.313 2.18.465 7.433 1.034 11.342 2.798 13.279 5.992 1.225 2.021 2.923 7.754 3.283 11.091.158 1.461.257 1.5 2.024.803 5.738-2.265 11.562-2.907 14.362-1.583 2.191 1.036 6.796 5.218 9 8.173 1.025 1.376.931 1.392 2.23-.383 2.418-3.308 6.867-7.144 9.37-8.08 2.613-.978 8.374-.182 13.787 1.904 1.784.687 1.784.687 2.022-1.195.478-3.765 2.023-9.142 3.09-10.754 1.931-2.915 7.398-5.243 14.52-6.183 1.318-.175 1.331-.242.509-2.597-2.635-7.545-2.854-11.313-.848-14.59 1.409-2.3 4.102-5.14 6.903-7.276 1.59-1.212 1.598-1.271.319-2.273-3.514-2.753-6.348-5.927-7.677-8.598l-.804-1.616.01-2.601c.013-3.053.362-4.731 1.85-8.896.52-1.459.905-2.76.854-2.893-.053-.138-1.095-.427-2.446-.68-12.111-2.257-14.594-4.91-16.384-17.513-.13-.91-.085-.914-3.825.415-3.693 1.312-6.03 1.812-8.522 1.822-2.921.011-3.327-.178-7.99-3.736-.921-.703-3.01-3.023-4.755-5.285-.583-.755-.87-1.133-1.205-1.085zm.221 11.939a37 37 0 0 1 3.282.123c2.201.182 2.991.273 3.134.36.087.054.807.233 1.601.397 9.788 2.021 20.884 9.528 25.052 16.947.36.64.793 1.316.965 1.502 1.013 1.1 3.76 7.724 4.592 11.073 3.628 14.6-1.675 30.164-13.526 39.696-.983.791-1.789 1.51-1.789 1.598s-.21.213-.468.278c-.257.064-1.033.504-1.722.976-4.433 3.035-11.465 5.465-17.455 6.032-14.204 1.344-26.43-4.018-35.9-15.742-.653-.809-1.188-1.55-1.188-1.646s-.329-.642-.73-1.213c-2.424-3.442-5.342-11.343-5.692-15.412-.037-.422-.119-1.285-.183-1.917-1.221-11.997 4.107-25.063 13.472-33.037 1.283-1.093 2.333-2.062 2.333-2.153s.295-.29.656-.441c.36-.151 1.215-.657 1.898-1.125 5.7-3.903 13.922-6.249 21.668-6.296m.564 1.55a38 38 0 0 0-2.181.008c-12.764.42-24.83 7.267-32.1 19.241-5.91 9.736-6.588 23.783-1.647 34.136 6.119 12.822 16.98 20.803 30.65 22.524 2.036.257 9.276.08 11.157-.272 14.159-2.648 25.503-12.484 29.975-25.99 2.21-6.675 2.61-12.387 1.3-18.537-2.67-12.522-10.528-22.423-21.882-27.57-4.992-2.262-10.169-3.416-15.272-3.54m2.404 3.139c.529-.1 1.272.044 2.806.322 1.806.327 2.764.553 4.54 1.07.178.051.425.413.548.803s.432 1.07.684 1.512l.459.802-1.42 3.031a433 433 0 0 1-2.951 6.144c-2.262 4.6-2.448 6.183-.727 6.183 1.073 0 1.001.12 2.388-4.025.653-1.95 1.767-5.181 2.475-7.18l1.287-3.635 1.246-.451c2.04-.74 1.966-.745 3.59.258 4.666 2.88 4.942 3.16 4.925 5.012-.017 1.87.135 1.645-2.966 4.378-5.604 4.938-7.082 6.285-7.082 6.453 0 .279 1.223 1.675 1.47 1.678.125.002.858-.713 1.63-1.59.772-.876 2.817-3.119 4.543-4.983l3.14-3.39h3.561l.937 1.294c1.24 1.711 3.312 5.036 3.304 5.3-.004.116-.134.38-.291.588s-.378.725-.492 1.15c-.294 1.1-.377 1.162-2.435 1.842-1.02.337-3.71 1.302-5.976 2.145-3.43 1.275-4.362 1.547-5.558 1.623-1.562.098-1.917.32-1.917 1.198 0 .823.316.96 2.21.96 1.506 0 1.882-.069 2.693-.491 1.397-.728 7.622-3.672 9.31-4.403l1.466-.635 1.217.474c.67.26 1.392.545 1.606.633.576.235 1.554 3.796 1.897 6.914l.116 1.054-1.049 1.102-1.049 1.102h-12.98l-.417-.48c-.397-.455-.518-.478-2.488-.478-2.387 0-2.532.077-2.532 1.356 0 1.297.165 1.372 2.718 1.237 1.194-.063 5.213-.158 8.931-.21l6.762-.097 1.148 1.188c.706.73 1.114 1.305 1.06 1.492-.049.168-.147.736-.218 1.263-.475 3.504-1.242 5.97-1.949 6.262-.292.12-.982.416-1.535.657l-1.004.437-2.44-1.154c-5.193-2.454-8.155-4.009-8.52-4.473-.481-.611-4.612-.765-4.836-.18-.437 1.138.096 1.997 1.239 1.997.941 0 2.807.614 8.982 2.955 5.392 2.044 5.3 1.997 5.486 2.856.072.335.3.943.506 1.35l.375.739-.668 1.081a116 116 0 0 1-2.092 3.176l-1.424 2.095-1.853.041-1.853.042-4.514-5.06c-2.483-2.782-4.624-5.059-4.759-5.059-.395 0-1.5 1.496-1.324 1.795.084.143.635.682 1.223 1.197.589.516 2.766 2.526 4.84 4.467l3.77 3.529v3.187l-1.007.799c-.553.44-1.97 1.442-3.147 2.228l-2.14 1.429-1.247-.499c-.685-.274-1.371-.498-1.525-.498-.471 0-.67-.407-1.84-3.758-3.4-9.73-4.111-11.384-4.898-11.384-1.53 0-1.272 1.984.824 6.344.932 1.94 2.28 4.748 2.995 6.24l1.299 2.713-.599 1.2c-.33.658-.599 1.311-.599 1.45 0 .614-3.634 1.612-7.02 1.928l-1.227.114-1.172-1.171-1.171-1.172.105-6.155c.089-5.242.15-6.205.407-6.49.384-.424.444-4.4.073-4.77-.335-.336-1.793-.288-2.152.07-.44.44-.436 4.216.005 4.703.262.29.322 1.232.413 6.581l.106 6.244-1.131 1.043c-1.434 1.324-2.63 1.341-7.386.108-1.957-.507-1.759-.356-2.255-1.718-.23-.632-.502-1.2-.603-1.263-.386-.238-.113-.991 2.195-6.07a5360 5360 0 0 0 2.853-6.287c.614-1.36.803-2.946.4-3.35-.366-.366-1.3-.379-1.656-.024-.258.258-2.517 6.694-4.179 11.903-.437 1.37-.873 2.575-.969 2.676-.142.151-1.655.738-3.046 1.181-.278.089-5.386-3.163-6.263-3.987-.649-.609-.55-3.6.14-4.255.766-.727 4.678-4.28 7.068-6.417 1.22-1.091 2.247-2.102 2.28-2.247.065-.277-1.068-1.805-1.338-1.805-.202 0-.33.131-3.227 3.355a1342 1342 0 0 1-4.264 4.719l-1.87 2.054-1.792.003c-2.077.004-1.57.423-4.214-3.477-1.852-2.733-1.793-2.572-1.3-3.548.198-.39.419-.982.49-1.314.181-.838.517-1.067 2.6-1.778 1.002-.342 3.718-1.358 6.038-2.257 3.28-1.273 4.514-1.663 5.558-1.757l1.342-.122v-2.108l-2.244-.054c-2.23-.053-2.246-.05-2.57.444-.36.55-.82.8-6.782 3.684l-4.121 1.993-.767-.387a23 23 0 0 0-1.486-.676c-.407-.164-.793-.481-.887-.73-.289-.763-.96-3.631-1.262-5.394l-.291-1.694 1.1-1.227 1.101-1.227 6.613.09c3.637.048 7.676.14 8.975.201 2.72.13 2.91.056 2.905-1.132-.005-1.24-.066-1.273-2.64-1.402l-2.322-.117-.232.508-.23.508-6.535-.004-6.534-.004-1.006-1.131c-1.176-1.322-1.17-1.275-.528-4.451.67-3.305.934-4.23 1.255-4.382.154-.074.87-.408 1.593-.743l1.314-.61 4.053 1.855c2.229 1.02 4.799 2.235 5.71 2.7 1.633.835 1.689.848 3.738.886l2.08.038v-1.916l-1.342-.155c-1.436-.165-2.962-.638-9.566-2.965-2.31-.814-4.268-1.61-4.35-1.768a37 37 0 0 1-.671-1.494l-.52-1.207.445-.806c.593-1.074 3.034-4.643 3.575-5.228.391-.422.582-.465 2.063-.465h1.632l1.684 1.884 4.542 5.08c1.573 1.757 2.929 3.195 3.014 3.195.234 0 1.41-1.346 1.41-1.613 0-.129-1.94-2.004-4.312-4.169s-4.584-4.19-4.916-4.502c-.599-.563-.604-.582-.566-2.322.02-.965.076-1.792.124-1.838.346-.332 4.874-3.377 5.567-3.745l.867-.459 1.268.507c.697.28 1.357.507 1.467.507.313 0 .41.251 2.907 7.571 1.294 3.795 2.436 7.008 2.537 7.14.244.318 1.792.314 1.915-.005.378-.986-.211-2.59-3.667-9.979l-2.317-4.953.45-.893c.247-.491.51-1.167.582-1.502.072-.336.234-.692.359-.792.557-.447 7.327-1.7 7.94-1.47.186.069.789.633 1.341 1.254l1.004 1.129-.122 6.281c-.096 4.975-.176 6.314-.381 6.435-.41.242-.369 4.46.044 4.618.522.2 1.91.127 2.15-.113.34-.34.311-3.96-.035-4.355-.209-.238-.294-1.658-.398-6.628l-.131-6.325 1.167-1.198c.674-.691.988-1.033 1.517-1.132zm1.456 7.095a1.6 1.6 0 0 0-.686.008c-.302.072-.59.237-.822.512-.628.747-.625 1.145.017 1.907l.513.61-.22 2.326c-.12 1.28-.309 2.356-.42 2.393-.638.213-.77.656-.77 2.596q0 1.961.239 2.199c.144.144.617.216 1.198.182l.96-.057.054-2.181c.045-1.797 0-2.243-.256-2.526-.27-.297-.284-.523-.103-1.688.115-.74.209-1.781.209-2.314s.073-.97.163-.97c.414 0 1.178-.972 1.178-1.498 0-.803-.58-1.36-1.254-1.498zm-8.354.314c-1.477 0-1.956 1.794-.768 2.878.91.832 1.127 4.788.262 4.788-.672 0-.81.398-.81 2.323 0 1.025.051 2 .115 2.166.195.506 2.31.427 2.475-.092.151-.475-.04-4.798-.312-7.1-.191-1.61-.184-1.668.296-2.375.915-1.35.314-2.588-1.258-2.588m8.026.611c.213.041.336.24.336.539 0 .546-.605.778-.787.301-.175-.454.072-.913.451-.84m-7.905.347c.237 0 .636.634.546.868-.137.357-.718.366-1.009.015-.195-.235.145-.883.463-.883m14.183 12.554-10.429.032c-11.573.035-11.69.046-12.866 1.222-1.332 1.331-1.334 1.354-1.334 12.55 0 10.835.024 11.121 1.05 12.467.648.849 1.254 1.242 2.37 1.54 1.124.3 20.64.158 21.672-.157.949-.29 2.238-1.563 2.641-2.608.498-1.291.534-21.185.04-22.267-.475-1.04-1.247-1.845-2.238-2.333zm-10.431 2.684h9.31l.687.524c1.31.998 1.318 1.073 1.256 11.071-.062 9.879-.028 9.623-1.363 10.618-.53.396-.716.404-9.68.438-10.545.04-10.55.038-11.469-1.727-.337-.649-.403-17.553-.073-18.696.66-2.279.4-2.228 11.332-2.228m-8.95 1.327a1.8 1.8 0 0 0-.627.195c-1.302.674-1.154 2.773.221 3.136.782.206 1.155.111 1.655-.42 1.17-1.246.165-3.068-1.25-2.911m12.615 1.635a.18.18 0 0 0-.147.011c-.198.098-.393.522-.428 1.195-.049.935-.113 1.102-.422 1.102s-.372-.167-.421-1.102c-.054-1.032-.088-1.102-.537-1.102s-.483.07-.536 1.102c-.05.935-.113 1.102-.422 1.102-.31 0-.373-.167-.422-1.102-.054-1.032-.088-1.102-.537-1.102-.448 0-.482.07-.536 1.102-.049.935-.113 1.102-.422 1.102s-.373-.167-.421-1.102c-.054-1.032-.088-1.102-.537-1.102s-.483.07-.537 1.115c-.072 1.381-.69 1.57-.733.223-.048-1.465-.047-1.464-.503-1.399-.382.054-.438.187-.489 1.157-.056 1.08-.066 1.096-.712 1.217-.801.15-1.08.466-1.23 1.387-.11.681-.15.713-1.021.813-1.641.19-1.706.913-.1 1.128 1.192.16 1.284.779.116.783-1.722.006-1.896 1.012-.192 1.11 1.293.074 1.394.667.13.77-1.507.123-1.607.935-.127 1.03.747.048.894.121.894.441s-.147.393-.894.442c-1.461.094-1.53.996-.077.996.924 0 1.438.378 1.004.74-.143.117-.596.193-1.009.168-.684-.041-.75-.004-.75.433 0 .432.094.49.947.589.52.06.975.189 1.01.287.29.831.599 1.145 1.211 1.233.635.091.669.135.727.954.034.473.152.969.263 1.102.478.577.922.023.922-1.15 0-.787.053-.924.335-.869.262.051.336.26.336.962 0 1.707.994 1.811 1.092.115.083-1.454.728-1.625.728-.193 0 1.752 1.089 1.927 1.188.191.05-.87.114-1.016.442-1.016.325 0 .374.107.321.706-.074.852.257 1.544.698 1.46.24-.046.346-.328.418-1.112.13-1.419.767-1.682.767-.317 0 1.095.145 1.467.575 1.467.403 0 .575-.37.575-1.238 0-.705.251-.994.952-1.092.44-.062.793-.52 1.044-1.36.078-.262.312-.335 1.064-.335.831 0 .965-.052.965-.377 0-.474-.547-.773-1.414-.773-1.355 0-.953-.7.46-.801 1.323-.095 1.25-.79-.099-.924-1.389-.14-1.512-.767-.15-.767q1.614.001 1.187-.796c-.145-.27-.412-.354-1.13-.354-1.571 0-1.407-.687.191-.801.722-.051.869-.13.92-.493.064-.452-.088-.508-1.173-.436-.295.02-.663-.068-.817-.196-.458-.38.039-.757 1-.757.59 0 .88-.09.96-.3.184-.479-.267-.754-1.235-.754-.877 0-.898-.015-1.007-.678-.151-.921-.276-1.08-1.05-1.336-.691-.228-.805-.445-.904-1.724-.037-.474-.16-.722-.302-.775m-29.756 2.475a1.4 1.4 0 0 0-.52.01c-.23.049-.462.154-.705.313-.937.614-.729 2.218.35 2.684.637.276 1.177.203 1.666-.225.423-.37.825-.33 1.234.122.334.369.546.384 4.582.335l4.232-.052.056-1.191c.07-1.446.088-1.437-2.836-1.356l-2.012.056-.096.767-.096.766-1.48.056-1.48.056-1.122-1.158c-.691-.712-1.246-1.097-1.773-1.183m44.63.651c-.415-.007-.926 0-1.43.017-1.008.034-1.991.107-2.13.193-.391.242-.301 1.99.113 2.212.368.197 9.161.348 9.349.16.06-.06.422.105.806.365 1.718 1.166 3.406-1.004 1.848-2.375-.858-.755-2.129-.39-2.479.712-.115.363-.28.39-2.386.39h-2.263l-.12-.754c-.077-.479-.243-.79-.456-.856-.12-.037-.438-.057-.853-.064m-44.937.332c.383 0 .763.518.632.86-.144.375-.87.377-1.013.003-.152-.396.054-.863.38-.863zm52.635.832c.31.075.586.466.458.802-.157.407-.608.483-.934.157-.35-.351-.3-.627.17-.914a.4.4 0 0 1 .306-.045m-8.97 6.068c-2.316 0-2.573.156-2.485 1.509l.057.887 2.338.054c2.183.05 2.352.028 2.547-.335.186-.349.395-.39 1.998-.39 1.969 0 1.761-.103 3.358 1.677.714.797 1.383.817 2.137.063 1.428-1.428-.346-3.238-2.137-2.18-.535.316-.566.312-1.05-.143-.43-.404-.715-.478-2.066-.53-.861-.034-1.838-.186-2.17-.337-.396-.18-1.266-.275-2.526-.275m-33.368.035c-.32-.019-.73-.005-1.25.028-4.278.274-6.6.51-7.061.72-.44.201-.571.167-1.114-.29-1.473-1.24-3.365.932-2.002 2.296.85.848 2.069.593 2.76-.58l.399-.675h2.023c1.952 0 2.03.016 2.196.453.236.62.529.697 2.626.697 2.285 0 2.559-.133 2.559-1.239 0-1.003-.172-1.353-1.136-1.41m-10.277 1.146a.57.57 0 0 1 .392.544c0 .343-.116.496-.407.538-.444.063-.705-.355-.52-.835.095-.249.327-.314.535-.247m52.526.736c.511 0 .774.507.459.887-.281.338-.459.332-.82-.03-.387-.386-.19-.857.36-.857m-22.518 10.925c-1.378 0-1.355-.098-1.306 5.424.04 4.399.01 4.938-.285 5.264-.667.737-.227 2.024.821 2.4.793.284 1.917-.653 1.917-1.598 0-.534-.326-.996-1.008-1.427-.242-.154-.315-.65-.366-2.478l-.064-2.285.56-.15c.8-.215.871-.426.875-2.595.004-2.515-.014-2.555-1.144-2.555m-6.57.14c-.132-.05-.693-.049-1.246.004l-1.004.097v4.732l.623.16.623.162.055 2.182.054 2.182-.773.707q-1.408 1.286-.303 2.39c1.488 1.487 3.678-.521 2.345-2.151-.436-.532-.441-.595-.303-3.417.228-4.675.206-6.941-.07-7.047zm6.028 10.997c.3-.053.635.144.635.462 0 .249-.15.401-.432.442-.481.068-.799-.441-.477-.763a.5.5 0 0 1 .274-.141m-6.921.03c.322-.045.656.226.656.642 0 .248-.158.38-.503.42-.622.072-.896-.466-.46-.903a.54.54 0 0 1 .307-.158"
     style="fill:#ffc42b;fill-opacity:1;stroke-width:.191667"
     transform="translate(-370.181 9.016)scale(.79116)"
     id="path3" /><path
     d="M825.132 386.663c-.27-.025-.532.26-1 .837-1.135 1.399-4.326 4.89-4.863 5.32-.263.21-1.034.885-1.714 1.5-3.697 3.343-7.138 3.43-15.736.4-2.948-1.04-2.818-1.042-2.974.064-.07.5-.377 2.07-.682 3.487-.678 3.15-.677 3.062-.033 3.017.45-.03.598.108 1.078 1.019.306.58.9 1.593 1.322 2.252.881 1.38.917 1.39 2.126.623 1.225-.777 1.259-.97.455-2.595-.578-1.168-.785-1.416-1.268-1.522-1.331-.292-2.098-1.897-1.357-2.839 1.067-1.357 3.225-.391 2.807 1.257-.06.235-.16.643-.225.907-.146.6 1.125 3.45 1.539 3.45.153 0 .706-.263 1.228-.584 2.085-1.283 6.276-2.914 9.847-3.831 2.39-.614 2.452-.643 2.396-1.127-.117-1.004-1.67-.794-7.318.987-2.125.67-2.512.855-2.78 1.325-.614 1.085-1.828.731-1.708-.498.054-.554.103-.586.92-.603.474-.01 1.897-.371 3.162-.803a52 52 0 0 1 4.6-1.296c1.265-.28 2.545-.64 2.845-.798.74-.393.996-.098.96 1.105-.032 1.021.483 1.282 1.478.75.65-.348.552-4.239-.118-4.727-.554-.403-.487-.924.145-1.125.786-.25.942.243.98 3.099l.035 2.663 1.342-.05c1.935-.075 1.82.077 1.82-2.417v-2.192l-.67-.803c-1.412-1.69-.056-3.941 1.797-2.983 1.306.675 1.493 1.972.43 2.983l-.744.707-.07 2.282-.072 2.282 1.608.145c1.113.101 1.688.08 1.869-.071.33-.275.36-3.193.039-3.898-.183-.401-.159-.606.14-1.159.379-.704.918-.883 1.116-.368.205.535.125.664-.263.422-.283-.177-.433-.182-.596-.019-.336.336-.005.682.524.55.461-.116.463-.111.171.454-.538 1.04-.415 4.194.169 4.34 1.01.254 1.155.09 1.296-1.462.073-.794.262-1.821.42-2.282.343-.993.214-1.332-.726-1.913-.676-.417-3.233-3.263-4.703-5.233-.498-.667-.775-1.004-1.044-1.03zm-.307 3.76c-1.078 0-1.512 1.074-.76 1.881.728.78 1.91.319 1.91-.747 0-.683-.457-1.134-1.15-1.134m25.804 3.444a2.7 2.7 0 0 0-.585.192c-3.525 1.51-8.433 2.722-11.036 2.723-2.223.002-3.22-.305-5.155-1.587-1.758-1.163-1.669-1.175-1.829.24-.152 1.343-.042 1.497 1.07 1.502 2.795.012 10.685 3.173 14.837 5.945 3.887 2.594 5.7 4.204 10.953 9.724.818.86 1.782.518 1.782-.631 0-.777.362-1.01 1.067-.69 1.015.463.503 1.424-1.132 2.125-1.13.484-2.618 1.529-2.618 1.837 0 .124.343.756.763 1.405.79 1.223 1.137 1.397 1.83.919.208-.144.993-.578 1.744-.965 1.262-.65 1.375-.759 1.482-1.427.344-2.152 3.377-2.205 3.536-.062.105 1.424-1.497 2.283-2.878 1.543-.507-.27-4.344 1.452-4.36 1.958-.004.169.515 1.359 1.156 2.645 1.755 3.525 2.862 7.024 3.52 11.122.334 2.072.42 2.21 1.261 2.025l.617-.135-.135-1.368c-.371-3.767-2.382-10.369-3.47-11.394-.256-.241-.465-.5-.463-.575.008-.365.373-.642.77-.584.8.117 3.387 8.547 3.754 12.236.18 1.81.881 2.255 2.075 1.316l.52-.41.512.382c.64.477.739.933.308 1.41-.402.443-.72.468-1.042.081-.401-.484-3.946-.41-4.212.088-.25.465-.037 2.495.262 2.511 2.816.153 4.23-.046 4.946-.693 1.68-1.518 3.89-.038 2.848 1.907-.64 1.195-2.553 1.124-3.196-.119l-.28-.543-2.245.054-2.244.053-.16 1.877c-.22 2.546-.306 2.436 1.915 2.436 1.665 0 1.911-.046 2.328-.431l.466-.432.505.623c.63.776.381.872 2.215-.862.864-.817 2.144-1.917 2.844-2.444s1.278-1.051 1.283-1.165c.005-.113-.89-.954-1.99-1.868-1.1-.913-2.63-2.354-3.402-3.201-4.818-5.288-5.248-8.5-2.318-17.295.589-1.767 1.027-3.255.975-3.308-.053-.053-1.166-.303-2.474-.556-11.541-2.236-13.69-4.187-15.779-14.33-.272-1.323-.495-2.657-.495-2.967 0-.665-.169-.92-.646-.837m-2.346 3.288c.322-.018.665.14 1.06.473.917.771.773 1.963-.308 2.539-1.425.76-2.759-1.155-1.69-2.426.315-.373.616-.568.938-.586m-15.686.325c-.68-.045-.872.165-.872.733 0 .554.241.664 2.683 1.227 8.281 1.908 16.756 7.31 22.314 14.223.83 1.032.966 1.074 1.584.494.657-.618.625-.677-1.713-3.151-7.188-7.61-14.151-11.64-23.143-13.4a7 7 0 0 0-.853-.126m-30.672.802c-.985 0-1.659 1.24-1.02 1.878.381.381 1.251.273 1.58-.196.563-.804.27-1.682-.56-1.682m23.358 3.802c-8.984-.07-18.065 3.145-25.256 9.996-17.13 16.323-14.592 42.97 5.344 56.084q7.808 5.136 17.441 5.797c20.015 1.374 38.012-14.676 38.761-34.567.195-5.172-1.371-12.33-3.733-17.058-6.506-13.032-19.427-20.15-32.557-20.252m-27.745.262c-.319-.016-.42.287-.98 1.675-1.797 4.458-5.302 6.542-13.133 7.807-1.74.28-3.225.563-3.301.626s.328 1.537.898 3.274c3.339 10.159 2.312 13.873-5.673 20.534-2.29 1.91-2.365 2.046-1.46 2.68 1.27.887 3.728 3.03 4.942 4.309 4.671 4.916 5.098 8.004 2.282 16.528-1.259 3.81-1.279 4.052-.33 4.054.346 0 1.664.178 2.93.396 1.264.217 2.601.441 2.97.498 1.98.302 5.852 2.15 7.325 3.496 2.073 1.895 4.072 7.176 4.745 12.537.221 1.76.217 1.758 2.31.97 7.15-2.69 12.111-2.86 15.638-.535 1.414.934 5.765 5.16 7.165 6.961.58.746 1.107 1.357 1.172 1.357s.581-.623 1.148-1.388c2.953-3.983 7.294-7.585 10.014-8.31 2.715-.722 7.804.053 12.944 1.972 2.055.767 2.025.78 2.192-.962.304-3.166 1.742-8.297 2.945-10.508 1.69-3.106 6.67-5.283 15.058-6.583.86-.133.874-.248.235-1.945-.51-1.355-1.495-4.616-1.931-6.39-.94-3.827-.252-7.633 1.81-10.007.968-1.114 1.132-1.571.507-1.414-.343.086-.63.036-.835-.145-.214-.19-.916-.298-2.227-.345l-1.915-.069-.34 1.63c-.682 3.264-2.26 8.161-3.028 9.39-1.137 1.825-1.555 3.068-1.03 3.068.298 0 1.298.524 2.956 1.55.787.486.932.515 1.641.324 1.843-.495 3.118 1.167 1.993 2.597-1.048 1.332-3.059.485-3.059-1.29 0-.567-.645-1.103-2.67-2.217-.775-.425-1.437-.773-1.472-.773-.036 0-.66.884-1.385 1.965-2.439 3.63-5.118 6.599-8.129 9.007-.922.738-1.677 1.363-1.677 1.39 0 .028.374.729.832 1.558.74 1.346.916 1.537 1.62 1.765.924.298 1.168.798.722 1.479-.569.868-1.832.436-1.832-.627 0-.553-1.642-3.695-1.93-3.695-.214 0-1.65.87-2.134 1.292-.305.265-.274.39.452 1.844.964 1.93 1.224 2.23 1.931 2.23 1.535 0 2.264 2.16 1.069 3.165-1.492 1.255-3.585-.453-2.737-2.232.31-.65.306-.666-.564-2.452-.481-.99-.914-1.838-.963-1.887s-1.062.392-2.254.978c-5.132 2.524-10.644 4.033-15.545 4.258-2.175.1-2.05-.057-2.05 2.572v2.27l.67.804c1.046 1.25.851 2.516-.47 3.063-1.758.728-2.995-1.535-1.652-3.022l.655-.726.048-2.34c.025-1.288-.005-2.393-.069-2.457-.063-.063-1.107-.152-2.322-.197l-2.207-.083-.106.676-.214 1.37-.109.694-.378-.406c-.253-.272-.613-.407-1.09-.407-2.839-.005-10.338-2.829-15.29-5.757-1.325-.783-2.132-1.142-2.573-1.142-.802 0-1.343-.47-1.343-1.168 0-.416-.245-.74-1.101-1.456-1.742-1.458-4.795-4.47-5.637-5.56-1.659-2.149-.378-1.185 3.262 2.456 3.34 3.34 3.886 3.812 4.415 3.812.449 0 .646.11.77.43 1.126 2.915 18.155 9.584 18.72 7.333.188-.747-.019-1.006-.914-1.15-9.198-1.477-18.076-6.64-24.408-14.195-1.01-1.206-1.886-2.193-1.944-2.193-.118 0-2.066 1.371-2.951 2.077-.31.247-.562.615-.562.819 0 .422-.783.854-1.234.68-.738-.282-.298-1.55.606-1.746.49-.106 1.746-.905 3.67-2.335.195-.145-.225-1.029-.784-1.649l-.63-.699-2.012 1.094c-2.005 1.09-2.012 1.096-2.122 1.914-.307 2.294-3.436 2.222-3.436-.079 0-1.116.74-1.687 1.98-1.53.545.07 1.139.128 1.32.131.455.008 3.967-1.981 3.976-2.252.004-.12-.543-1.351-1.216-2.734-1.752-3.598-3.31-8.681-3.482-11.357-.066-1.035-.136-1.076-1.663-.974-1.227.083-1.456.16-1.91.646-.609.65-.974.692-1.497.169-.751-.752-.222-1.894.75-1.617.273.078 1.316.15 2.317.16l1.82.02-.069-1.438c-.089-1.857.102-1.725-2.506-1.725h-2.266l-.506.663c-.865 1.134-2.323 1.152-3.002.038-.534-.875-.464-1.413.28-2.158.904-.904 1.56-.875 2.71.121l.893.773 2.138-.054 2.137-.054.172-1.6c.227-2.11-.076-2.266-3.347-1.726-1.871.31-2.776-.53-1.676-1.554.543-.506.594-.499 1.38.192.64.562.722.58 2.244.527l1.58-.056.323-1.917c.632-3.736 1.932-7.814 3.467-10.873.515-1.026.936-1.987.936-2.136 0-.148-.897-.793-1.993-1.433l-1.994-1.162-.773.303c-1.865.733-3.344-1.252-1.963-2.634 1.122-1.122 2.558-.602 2.971 1.077l.234.95 1.903 1c2.33 1.222 2.022 1.241 2.984-.185 2.456-3.642 4.4-5.833 7.466-8.41 1.15-.966 2.09-1.828 2.09-1.915 0-.562-2.383-3.728-2.912-3.87-.18-.047-.31-.088-.416-.093zm30.416.508.975.125c4.18.533 7.146 1.414 7.33 2.176.066.278.324.913.573 1.41.626 1.253.759.842-2.421 7.48-3.553 7.417-3.884 8.633-2.4 8.806.93.109 1.168-.11 1.599-1.474.924-2.92 4.476-13.038 4.652-13.25.109-.13.472-.298.807-.371s.97-.309 1.408-.522c1.019-.495 1.255-.403 4.466 1.74 3.423 2.283 3.266 2.087 3.262 4.051-.004 1.989.261 1.59-2.882 4.348-5.261 4.617-7.082 6.272-7.082 6.44 0 .278 1.035 1.494 1.27 1.494.12 0 .852-.718 1.63-1.595s2.825-3.12 4.551-4.982l3.139-3.388 1.76.06c2.195.076 1.9-.149 4.015 3.068 2.452 3.727 2.309 3.343 1.737 4.663-.92 2.127-.666 1.932-4.11 3.133-1.74.607-4.489 1.593-6.11 2.192-2.161.798-3.335 1.123-4.408 1.22l-1.461.133v1.533l1.886.055 1.887.055 1.66-.848c4.375-2.235 9.68-4.566 10.168-4.467 3.165.64 3.611 1.34 4.528 7.094l.3 1.89-1.01 1.081c-.555.595-1.098 1.145-1.206 1.223-.108.077-3.057.142-6.554.143l-6.359.003-.577-.486c-.55-.463-.673-.483-2.65-.43l-2.073.054v2.108l2.396-.05c1.317-.028 5.38-.096 9.026-.15l6.631-.101 1.18 1.165c1.408 1.39 1.398 1.302.625 5.111-.795 3.927-1.39 4.686-4.046 5.175-.6.111-10.447-4.633-11.135-5.364-.427-.453-.6-.492-2.386-.537-2.208-.056-2.387.009-2.387.857 0 .78.295 1.082 1.058 1.082 1.053 0 13.615 4.467 14.21 5.053.295.292 1.215 2.644 1.215 3.109 0 .203-.927 1.738-2.06 3.412l-2.06 3.044-1.888.034-1.888.034-4.496-5.043c-2.473-2.774-4.61-5.043-4.75-5.043-.29 0-1.318 1.27-1.224 1.511.035.088.543.581 1.131 1.097s2.798 2.56 4.911 4.542l3.843 3.604-.024 1.59c-.016 1.08-.113 1.696-.303 1.925-.34.41-3.498 2.655-5.114 3.637l-1.178.714-.74-.378a9.5 9.5 0 0 0-1.532-.59c-1.035-.28-1.013-.242-2.134-3.478-1.648-4.756-3.898-10.799-4.193-11.263-.619-.97-1.305-.506-1.368.925-.054 1.206-.007 1.352 1.364 4.217.78 1.632 2.12 4.449 2.978 6.26l1.559 3.291-.815 1.692-.814 1.691-1.725.435c-.949.239-2.741.577-3.983.753l-2.258.318-1.176-1.179-1.175-1.179.041-6.278c.035-5.237.088-6.33.326-6.592.223-.247.272-.78.23-2.496l-.055-2.182h-2.109l-.054 2.182c-.043 1.727.005 2.248.233 2.5.237.261.31 1.417.42 6.583l.133 6.265-1.228 1.145c-1.361 1.27-1.287 1.252-3.816.882-3.737-.548-5.643-1.154-5.836-1.858-.068-.247-.344-.931-.614-1.52l-.49-1.071.622-1.42a675 675 0 0 1 2.865-6.314c2.748-5.995 3.077-7.474 1.66-7.467-.967.005-.95-.033-3.47 7.474-1.327 3.95-2.518 7.272-2.647 7.382-.437.374-2.976 1.101-3.43.983-.509-.132-4.452-2.702-5.64-3.675l-.787-.645.045-1.757c.04-1.568.094-1.805.498-2.188.557-.527 4.071-3.724 7.054-6.414 2.473-2.231 2.531-2.338 1.751-3.243-.703-.815-.57-.906-3.574 2.459a660 660 0 0 1-4.411 4.887l-1.934 2.113h-3.767l-2.094-3.079-2.094-3.08.497-1.179c.273-.648.496-1.298.496-1.443 0-.482.666-.875 2.659-1.569 1.086-.378 3.627-1.337 5.647-2.13 3.985-1.565 5.373-1.99 6.49-1.99.777 0 1.028-.388.89-1.37-.063-.44-.117-.452-2.309-.505l-2.243-.054-.34.52c-.464.707-10.275 5.506-10.985 5.373-.697-.13-2.681-1.003-2.975-1.308-.248-.258-1.027-3.23-1.421-5.423-.362-2.015-.315-2.188.956-3.515l1.153-1.203 6.462.068c4.554.049 6.748.144 7.43.323.723.19 1.382.21 2.588.08l1.62-.174.059-.829c.092-1.287-.072-1.375-2.58-1.375-2.154 0-2.188.007-2.367.48l-.183.478-6.569-.006-6.57-.006-1.135-1.26-1.136-1.26.24-1.465c.32-1.961 1.147-5.569 1.37-5.986.099-.185.504-.44.9-.566.396-.127.99-.392 1.318-.59s.795-.36 1.037-.36c.433 0 9.064 3.918 10.734 4.873 1.312.75 4.714.75 4.902 0 .257-1.025-.163-1.423-1.502-1.424-.944 0-1.78-.203-3.886-.938-1.475-.516-4.235-1.476-6.133-2.134-3.485-1.208-4.12-1.529-4.123-2.084-.002-.168-.218-.77-.482-1.338l-.48-1.032.514-.885c.576-.99 2.912-4.463 3.49-5.188.346-.434.513-.473 2.132-.497l1.756-.027 1.376 1.54c.757.848 1.936 2.15 2.621 2.895.685.744 2.103 2.323 3.151 3.508 2.182 2.468 1.958 2.344 2.753 1.524.79-.814.783-.851-.31-1.792-1.382-1.19-8.533-7.743-8.772-8.038-.204-.252-.199-3.045.007-3.694.11-.343 5.752-4.204 6.388-4.37.21-.055.664.047 1.01.226a9.4 9.4 0 0 0 1.409.551c1.004.291.872 0 3.48 7.686 2.785 8.212 2.408 7.38 3.345 7.38 1.594 0 1.278-1.248-2.209-8.71-2.967-6.351-2.97-6.36-2.41-7.272.203-.329.429-.926.503-1.328.21-1.13 1.68-1.662 6.452-2.333l1.974-.278 1.198 1.186 1.198 1.186v6.432c0 6.285-.009 6.439-.4 6.774-.374.32-.391.465-.267 2.199.158 2.189.155 2.183 1.36 2.107l.936-.06.055-1.96c.04-1.44-.018-2.078-.217-2.397-.214-.342-.295-1.771-.381-6.702l-.11-6.269 1.269-1.268zm-29.942 3.286c.44 0 .037.53-1.563 2.053-2.63 2.503-5.166 5.625-5.166 6.36 0 .524-.064.595-.536.595-1.14 0-1.412-1.163-.374-1.597.342-.143 1.054-.768 1.58-1.389 2.637-3.105 5.572-6.022 6.06-6.022m31.405 4.23a1.29 1.29 0 0 0-1.128.492c-.522.663-.501 1.067.09 1.77l.488.58-.198 2.262c-.11 1.244-.198 2.329-.2 2.41-.004.082-.218.23-.482.33-.47.18-.479.22-.479 2.264 0 1.145.058 2.139.128 2.21.07.07.545.127 1.054.127h.926v-2.141c0-1.621-.068-2.217-.283-2.455-.23-.255-.249-.524-.097-1.452.103-.627.188-1.632.188-2.234 0-.762.093-1.17.302-1.342.847-.695 1.04-.961 1.04-1.432 0-.8-.661-1.34-1.35-1.389m-7.96.37c-1.425 0-1.916 1.489-.821 2.489.575.525.61.642.774 2.596.183 2.19.101 2.508-.672 2.618-.392.056-.42.174-.473 1.963-.03 1.046-.01 2.021.046 2.166.072.188.39.247 1.11.205l1.008-.058.055-2.18c.03-1.21-.079-3.2-.243-4.466l-.297-2.284.482-.632c.85-1.114.327-2.417-.97-2.417m7.712.302c.639-.245 1.108.686.6 1.193-.306.307-.63.29-.911-.048-.281-.339-.106-.985.311-1.145m-7.687.53c.296.027.587.196.628.488.036.252-.05.53-.191.62-.568.36-1.211-.075-1.084-.733.054-.283.353-.4.647-.375m-36.8 2.205c-.827-.089-1.736.809-1.162 1.685.374.57 1.285.606 1.821.07.462-.462.48-.736.085-1.3a1.03 1.03 0 0 0-.743-.455m80.997.409a1.16 1.16 0 0 0-.828.321c-.477.431-.442 1.131.075 1.493.573.401 1.03.375 1.49-.085.749-.748.085-1.7-.737-1.73m-78.463 5.963c.167.028.317.169.41.414.196.52.11.692-.446.904-.477.18-2.458 5.801-2.797 7.931-.098.617-.228 1.278-.289 1.47-.07.221.047.497.317.749l.428.398h-.617c-.847 0-.889-.243-.435-2.527.406-2.038 2.506-8.599 2.908-9.083.167-.202.353-.285.52-.256m27.153 4.103-.952.49c-.675.348-1.118.76-1.528 1.422l-.577.933-.052 10.614c-.05 10.038-.033 10.66.307 11.43.565 1.275 1.483 2.195 2.496 2.5.722.218 2.847.262 11.24.233 11.708-.04 11.115.035 12.55-1.594 1.17-1.329 1.189-1.556 1.12-12.914l-.06-10.078-.58-.937a4.96 4.96 0 0 0-1.52-1.518l-.938-.58h-10.753Zm10.864 2.333c10.247.003 9.95-.037 10.882 1.472.522.845.659 18.815.151 19.791q-.72 1.386-2.19 1.627c-.97.16-5.816.156-13.887-.012l-4.923-.102-.61-.575c-1.148-1.08-1.14-1.007-1.135-10.296.005-8.687.08-9.734.766-10.697.86-1.208.885-1.21 10.946-1.208m-8.833 1.597c-1.485 0-2.111 2.258-.82 2.958.774.42 1.16.363 1.785-.26 1.035-1.036.441-2.698-.965-2.698m6.696 1.565c-.155.034-.316.446-.38 1.214-.082.99-.149 1.15-.479 1.15-.325 0-.398-.16-.479-1.053-.07-.77-.18-1.068-.408-1.111-.32-.061-.689 1.114-.463 1.48.205.33-.133.78-.587.78-.582 0-1.225.634-1.225 1.209 0 .726-.407 1.068-1.342 1.13-1.17.077-1.218.606-.063.69 1.594.116 1.657 1.187.069 1.187-.837 0-.964.051-.964.384 0 .332.127.383.964.383.684 0 .997.084 1.076.29.18.47-.307.86-1.073.86-.392 0-.768.057-.838.126-.27.27.338.64 1.05.64.492 0 .788.1.86.29.163.423-.298.891-.738.752-.53-.168-1.301.067-1.301.396 0 .284.394.427 1.437.523 1.066.097.772.8-.383.915-1.328.132-1.318.61.017.822.858.137 1.013.235 1.288.812.21.44.488.694.846.772.985.217 1.011.245 1.011 1.102 0 .46.06.895.132.968.312.311.546-.073.635-1.041.081-.88.155-1.04.48-1.04.327 0 .39.148.44 1.017.097 1.687.822 1.67.992-.022.151-1.5.825-1.459.963.06.081.894.154 1.054.48 1.054s.397-.16.478-1.054c.082-.895.154-1.055.48-1.055.327 0 .391.148.441 1.017.097 1.687.821 1.67.992-.022.15-1.5.824-1.459.962.06.108 1.187.628 1.53.724.479.114-1.25.216-1.438.784-1.438.626 0 1.112-.463 1.206-1.15.058-.423.178-.49 1.024-.575 1.407-.14 1.408-.817 0-.958-.74-.074-.972-.178-1.025-.456-.088-.46.32-.728.896-.592.593.14 1.181-.06 1.181-.402 0-.197-.238-.275-.839-.275-1.66 0-1.735-1.093-.08-1.188 1.453-.083 1.427-.595-.04-.729-1.822-.165-1.525-1.14.35-1.147 1.107-.005.732-.651-.447-.77-1.369-.137-1.407-.81-.054-.966 1.55-.178 1.59-1.002.045-.922-.933.048-1.227-.167-1.232-.902-.004-.576-.402-1.03-1.057-1.203-.532-.141-.582-.23-.67-1.194-.128-1.38-.643-1.484-.73-.147-.112 1.736-1.188 1.685-1.188-.056 0-.807-.052-.934-.383-.934-.336 0-.383.127-.383 1.033 0 .742-.081 1.065-.288 1.144-.623.24-.862-.078-.862-1.144 0-.906-.048-1.033-.384-1.033-.337 0-.383.127-.383 1.06 0 1.805-1.083 1.654-1.188-.166-.043-.744-.193-1.088-.349-1.054zm-24.295 2.54c-.625-.04-1.132.283-1.308.98-.352 1.404 1.173 2.49 2.276 1.623.59-.464.966-.485 1.307-.075.141.17.405.364.585.432.36.133 7.77.066 8.176-.074.173-.06.232-.396.192-1.095l-.058-1.009-2.336-.053-2.336-.054-.06.724-.06.725-1.73.054-1.731.055-.903-1.045c-.646-.75-1.39-1.15-2.014-1.189m44.906.722c-.35-.015-.797-.01-1.372.005l-2.081.055-.06.937c-.032.516.013 1.009.1 1.096s2.34.198 5.007.246c3.932.07 4.929.143 5.268.38 1.38.964 2.885-.733 1.834-2.068-.622-.79-1.64-.644-2.266.325l-.467.724-2.312-.053-2.312-.054-.06-.608c-.068-.708-.23-.94-1.279-.985zm-44.677.089c.438.096.812.592.568.98-.421.673-1.415.414-1.415-.37 0-.186.183-.436.407-.555a.63.63 0 0 1 .44-.055m52.4.768c.36.035.646.39.582.843-.066.467-.855.766-1.176.445-.267-.268-.13-1.02.22-1.208a.65.65 0 0 1 .375-.08m-26.46.353c2.632 0 3.512.062 3.755.263.45.374.48 7.318.032 7.689-.353.293-6.513.47-7.13.204-.727-.313-.827-.808-.827-4.097 0-4.334-.283-4.059 4.17-4.059M778.25 437c-.926 0-1.462 1.254-.833 1.949.609.672 1.983.034 1.983-.921 0-.391-.713-1.029-1.15-1.029m93.81.281c-.231-.04-.486.003-.734.165-.598.392-.694 1.339-.166 1.646.524.305 1.108.241 1.471-.16.595-.657.121-1.53-.571-1.65m-29.399 2.975c-1.068-.013-2.102.06-2.273.232-.35.35-.295 1.812.073 1.953.95.365 3.93.118 4.376-.363.404-.436.586-.479 2.013-.479 1.828 0 2.474.26 3.08 1.24.229.371.56.759.737.861 1.334.78 2.843-1.015 1.763-2.096-.61-.61-1.297-.689-1.93-.221-.687.508-.68.509-1.368-.071-.497-.418-.757-.48-2.04-.486-.913-.004-1.653-.111-1.95-.28-.31-.178-1.412-.277-2.48-.29m-43.816.025c-.29-.016-.587.11-.924.374-.885.696-.627 2.136.454 2.533.68.25 1.415-.111 1.903-.937.641-1.088 4.464-1.253 4.96-.214l.255.533 2.239-.054 2.239-.054v-2.109l-2.109.024c-3.031.033-6.634.352-7.159.632-.399.214-.51.184-.969-.255-.313-.3-.598-.457-.889-.473m-.086.84c.578 0 .934.552.649 1.005-.286.454-.732.514-1.098.148-.42-.42-.135-1.154.45-1.154m52.614.766c.508 0 .573.064.573.575 0 .653-.946.984-1.168.407-.23-.599.004-.982.595-.982m-70.412.342c-.21-.02-.429.146-.312.333.057.094.237.12.399.058.192-.074.229-.179.106-.301a.3.3 0 0 0-.193-.09m3.162 1.315c.357.011.426.22.077.513-.473.398.074 3.315 1.355 7.218 1.005 3.06 1.13 3.358 1.427 3.358.376 0 .48.275.35.926-.237 1.186-.988.82-1.236-.601-.077-.442-.45-1.646-.828-2.674-.838-2.278-1.817-5.982-1.973-7.464-.11-1.054-.097-1.096.38-1.216q.268-.066.448-.06m82.462 1.123c.538-.003-.194 3.626-1.45 7.185-.385 1.093-.643 1.55-.9 1.6-.454.086-.397-.192.538-2.595.377-.97.88-2.758 1.116-3.975.3-1.543.512-2.214.696-2.215m-45.299 8.437c-.446-.005-.892.079-1.038.254-.147.178-.175.905-.089 2.317.121 1.983.144 2.063.62 2.244.727.277.781.458.785 2.615l.004 1.972-.767.752c-1.075 1.054-1.044 2.115.077 2.6 1.778.769 2.798-1.013 1.437-2.512-.288-.317-.323-.517-.184-1.055.301-1.165.467-8.587.199-8.91-.149-.179-.596-.272-1.042-.277zm6.51.091-.034 5.048c-.028 4.295-.078 5.098-.335 5.382-.481.531-.383 1.458.203 1.919.277.218.654.397.836.397.994 0 1.812-1.702 1.102-2.293-.131-.11-.43-.35-.665-.534-.395-.31-.429-.505-.454-2.603-.03-2.389.018-2.55.784-2.652l.48-.064v-4.6h-.96zm34.302 1.275c.195-.063.746.183 2.04.866 1.536.81 1.746.872 2.21.66.663-.302 1.252.153.908.7-.3.48-1.039.496-1.702.038-.316-.218-1.244-.738-2.06-1.155s-1.486-.844-1.486-.949c0-.084.025-.14.09-.16m3.927 5.381a1.2 1.2 0 0 0-.748.143c-.447.239-.55 1.306-.164 1.692.415.415 1.267.272 1.623-.271.465-.71-.01-1.463-.71-1.564m-81.667.148c-.998 0-1.47 1.027-.808 1.758.69.763 1.791.33 1.791-.704 0-.732-.3-1.054-.983-1.054m75.303.317c.247-.153 1.005.414 1.005.751 0 .338-4.12 5.145-5.615 6.551-.588.553-1.156 1.006-1.262 1.006-.613 0-.254-.578 1.208-1.945 2.36-2.21 4.748-5.22 4.601-5.805-.062-.247-.033-.499.063-.558m-31.207 3.556a.64.64 0 0 1 .588.345c.164.307.162.474-.01.682-.51.614-1.622.013-1.206-.651a.77.77 0 0 1 .627-.376zm-6.749.058c.499.152.795.717.429 1.158-.23.277-.641.334-1.095.151-.386-.156-.295-1.171.117-1.302a.92.92 0 0 1 .55-.007zm-21.49 7.507c-.314-.12-.499.021-.499.382 0 .14.173.255.384.255.435 0 .522-.48.114-.637m41.91 4.104c.212 0 .392.118.518.354.522.975-.025 1.785-.843 1.25-.55-.361-.446-.381-3.08.584a52 52 0 0 1-4.024 1.247c-3.357.867-4.472.94-3.905.255.118-.141.456-.257.753-.257 1.445 0 9.143-2.403 9.872-3.081.253-.235.497-.353.709-.352m-40.135.483c1.25-.142 2.266 1.386 1.32 2.46-.66.751-1.477.825-2.217.203-.938-.79-.78-1.908.352-2.494a1.6 1.6 0 0 1 .545-.17m46.645.494a1.5 1.5 0 0 0-1.368.76c-.252.45-.247.555.047 1.003.696 1.062 2.236.451 2.236-.887 0-.553-.42-.85-.915-.876m-20.043 1.502q.066-.07.152.018c.047.047.146.884.22 1.86.107 1.42.202 1.813.476 1.96.46.245.628.847.372 1.326-.249.465-.904.505-1.495.092-.426-.299-.572-.93-.26-1.123.091-.057.208-.969.259-2.027.063-1.321.143-1.964.276-2.106m-6.93.072q.052-.004.106.049c.115.115.131.695.04 1.501-.185 1.665-.625 1.957-.625.415 0-1.068.23-1.952.478-1.965m-1.928 3.071c.217.058.543.107.724.109.528.004.799.704.526 1.362-.291.704-.865.729-1.576.07-.608-.564-.591-.5-.297-1.146.17-.374.328-.474.623-.395m.299 1.07a.19.19 0 0 0-.192.191.192.192 0 0 0 .383 0 .19.19 0 0 0-.191-.191m4.983 1.341c-.96 0-1.433 1.043-.851 1.874.356.51 1.15.562 1.651.11.724-.656.19-1.984-.8-1.984"
     style="fill:#152238;fill-opacity:1;stroke-width:.191667"
     transform="translate(-370.181 9.016)scale(.79116)"
     id="path4" /><g
     transform="translate(-267.912 -75.388)scale(1.30616)"
     id="g16"><path
       d="M241.043 413.148v1.866l.749 1.33.746 1.328 1.101.65 1.102.65 1.094.264 1.095.262 98.82.027 98.823.028 1.398-.325 1.4-.324.897-.67.899-.67.656-.879.654-.876.217-1.33.215-1.33H345.977ZM385.792 282.509l-2.773 2.756-2.771 2.756v.533l18.359.1 18.361.097.615.617.616.616.156 3.308.154 3.684.026.176.058.113 5.746.002.03-.059.04-4.176.102-3.923-.566-1.489-.569-1.488-1.548-1.428-1.55-1.427-1.374-.383-1.377-.381-15.867-.002zM370.854 282.55l-49.32.002-49.323.002-1.375.381-1.375.383-1.549 1.428-1.55 1.428-.563 1.488-.562 1.488.097 43.762.1 43.76 1.07 1.513 1.07 1.514.913.676.912.677 1.406.5 1.41.502 72.822.016 72.823.016 1.535-.543 1.537-.541 1.226-.938 1.229-.935.857-1.873.858-1.872-.098-6.193-.1-6.191h-2.853l-3.34-.09.043 2.842.086 2.754-.637.636-.636.635-56.956.094-56.957.095-.56-.004-.58.018.127-.127h-16.533l-.159.346-.119-.006-10.62-.102.105-.029-.096-.031h-.012l-2.775-.682.01.02-.56-.465-.56-.463v-23.15l.087-.086.015-14.137h-.121l.098-20.5.097-20.5.637-.637.637-.638 46.273-.092 46.272-.094 2.77-2.752 2.767-2.754v-.275z"
       style="fill:#152238;fill-opacity:1;stroke-width:.356755"
       id="path5" /><path
       d="M241.739 412.051c-.348-.091-.632-.4-.632-.686 0-.524 2.954-3.466 5.556-5.533l1.403-1.115h86.996l1.073.902c1.306 1.099 2.07 1.134 3.316.155 1.187-.934 1.3-2.795.23-3.764-1.055-.955-2.903-.792-3.802.335l-.735.921-42.505.094c-23.378.05-42.505-.008-42.505-.132s1.219-1.383 2.709-2.798c1.693-1.608 3.013-2.576 3.52-2.58.447-.003 20.31 0 44.14.006l43.327.012 3.348 3.334 3.348 3.334 37.256.096c20.49.052 37.345.224 37.454.382.414.597 2.01 1.508 2.643 1.508 1.023 0 2.43-1.63 2.43-2.816 0-2.288-2.995-3.207-4.553-1.396l-.828.962h-36.037c-22.36 0-36.503-.133-37.266-.352-.775-.222-2.39-1.489-4.374-3.43l-3.145-3.078h-43.014c-25.473 0-43.015-.133-43.015-.327 0-.567 5.181-5.168 6.398-5.682.967-.408 14.562-.49 81.187-.49h80.025l1.202.57c.66.314 2.635 1.88 4.387 3.483 1.752 1.602 6.517 5.826 10.588 9.386 7.675 6.713 8.989 8.022 8.521 8.49-.29.29-207.548.498-208.646.21z"
       style="fill:#ffc42b;fill-opacity:1;stroke-width:.361075"
       id="path6" /><path
       d="M340.43 375.154h9.477l.375.594.375.596-.468.564-.47.565h-9.1l-.47-.565-.468-.564.375-.596z"
       style="fill:#fff;stroke-width:.356755"
       id="path7" /><path
       d="m251.62 400.62 3.093.2"
       style="font-variation-settings:&quot;wght&quot;800;fill:#008cba;fill-opacity:1;stroke:none;stroke-width:0;stroke-dasharray:none;stroke-opacity:1;stop-color:#000"
       id="path8" /><path
       d="m116.634 264.171 16.104-.273 11.316-10.608 10.443-10.422h16.364l20.178-20.156 20.175-20.156h2.95l.958-1.14.96-1.141-.2-1.223-.197-1.223-.588-.65-.588-.649-.97-.213-.971-.212-1.016.384-1.013.385-.463.611-.465.61-.01 1.431-.012 1.432-20.068 20.031-20.067 20.032-6.154-.03-6.154-.03v-.765l15.785-15.789 15.785-15.787h2.627l.76-.967.76-.964-.223-.909-.223-.906-.422-.422-.422-.424-.908-.22-.908-.223-.965.76-.965.76v2.627l-16.591 16.587-16.592 16.586-6.865.067-6.866.064-.7.024-.702.025-11.44 11.42zM101.85 225.483l.007 14.024 10.174-10.041 10.183-10.145h14.288l.779-.394.78-.393 12.864-12.828 12.866-12.826 1.34-.123 1.34-.125.689-.625.69-.623v-1.871l-.557-.793-.555-.793h-2.727l-.431.521-.434.522-.185 1.53-.186 1.53-12.535 12.598-12.537 12.6-.963.511-.963.512h-11.809v-.579l4.873-4.897 4.875-4.9.567.232.566.234 1.438.176 1.437.177 1.32-.55 1.319-.553.72-1.18.72-1.181v-2.747l-.569-1.197-.568-1.197-1.506-.73-1.506-.729-.691.008-.69.008-1.531.695-1.531.696-.721 1.628-.72 1.63.44 1.972.442 1.97-5.5 5.509-5.498 5.505H109.59l-3.726 3.666-3.867 3.559-.405.008zM217.415 161.171l-1.166.486-1.164.487-.955 1.134-.955 1.135-.38 1.412-.38 1.41.446 2.159.445 2.156-21.04 21.031-21.04 21.033h-17.338l-.78.393-.778.394-24.682 24.643-24.424 24.357 2.182.557 24.724-24.219 23.996-23.984h17.823l21.47-21.469 21.473-21.47 1.402.421 1.405.42h2.615l1.166-.486 1.164-.486.955-1.135.955-1.137.373-1.387.373-1.384-.34-1.514-.34-1.512-.681-.92-.682-.92-1.394-.796-1.393-.797-1.527-.006z"
       style="fill:none;stroke:#ffc42b;stroke-width:.5;stroke-dasharray:none;stroke-opacity:1"
       transform="translate(169.706 105.834)"
       id="path9" /><path
       d="m322.521 348.448-12.896.052-20.344 20.344 12.344-.281Z"
       style="font-variation-settings:&quot;wght&quot;800;opacity:1;fill:none;fill-opacity:1;stroke:#ffc42b;stroke-width:.5;stroke-dasharray:none;stroke-opacity:1;stop-color:#000"
       id="path10" /><path
       d="M290.656 325.094h-10.875l-7.187 6.812.062 10.969z"
       style="font-variation-settings:&quot;wght&quot;800;opacity:1;fill:none;fill-opacity:1;stroke:#ffc42b;stroke-width:.4;stroke-dasharray:none;stroke-opacity:1;stop-color:#000"
       id="path11" /><circle
       cx="306.567"
       cy="309.573"
       r="2.857"
       style="font-variation-settings:&quot;wght&quot;800;opacity:1;fill:#ffc42b;fill-opacity:1;stroke:none;stroke-width:.417007;stroke-dasharray:none;stroke-opacity:1;stop-color:#000"
       id="circle11" /><circle
       cx="335.124"
       cy="296.057"
       r="1.266"
       style="font-variation-settings:&quot;wght&quot;800;fill:#ffc42b;fill-opacity:1;stroke:none;stroke-width:.184749;stroke-dasharray:none;stroke-opacity:1;stop-color:#000"
       id="circle12" /><circle
       cx="359.862"
       cy="312.11"
       r="1.431"
       style="font-variation-settings:&quot;wght&quot;800;fill:#ffc42b;fill-opacity:1;stroke:none;stroke-width:.208943;stroke-dasharray:none;stroke-opacity:1;stop-color:#000"
       id="circle13" /><circle
       cx="388.445"
       cy="273.186"
       r="3.928"
       style="font-variation-settings:&quot;wght&quot;800;fill:#ffc42b;fill-opacity:1;stroke:none;stroke-width:.57346;stroke-dasharray:none;stroke-opacity:1;stop-color:#000"
       id="circle14" /><circle
       cx="382.442"
       cy="305.163"
       r="1.803"
       style="font-variation-settings:&quot;wght&quot;800;fill:#ffc42b;fill-opacity:1;stroke:none;stroke-width:.263244;stroke-dasharray:none;stroke-opacity:1;stop-color:#000"
       id="circle15" /><circle
       cx="345.169"
       cy="285.5"
       r="1"
       style="font-variation-settings:&quot;wght&quot;800;opacity:1;fill:#fff;fill-opacity:1;stroke:none;stroke-width:.4;stroke-dasharray:none;stroke-opacity:1;stop-color:#000"
       id="circle16" /></g><text
     xml:space="preserve"
     x="489.19"
     y="438.118"
     style="font-size:34.0095px;font-family:&quot;Open Sans&quot;;-inkscape-font-specification:&quot;Open Sans, @wght=800&quot;;font-variation-settings:&quot;wght&quot;800;text-align:center;text-anchor:middle;fill:#152238;fill-opacity:1;stroke:none;stroke-width:.166114;stroke-dasharray:none;stroke-opacity:1;stop-color:#000"
     transform="matrix(1.04934 0 0 .95298 6 1)"
     id="text16"><tspan
       x="489.19"
       y="438.118"
       style="fill:#152238;fill-opacity:1;stroke-width:.166114"
       id="tspan16">Soluções Tecnológicas</tspan></text></svg>
