<?xml version="1.0" encoding="UTF-8" standalone="no"?>
<!-- Created with Inkscape (http://www.inkscape.org/) -->

<svg
   version="1.1"
   id="svg14960"
   width="740"
   height="740"
   viewBox="0 0 740 740"
   xml:space="preserve"
   xmlns="http://www.w3.org/2000/svg"
   xmlns:svg="http://www.w3.org/2000/svg"><defs
     id="defs14964"><clipPath
       clipPathUnits="userSpaceOnUse"
       id="clipPath55853"><g
         id="g55887"><g
           id="g55869"
           transform="matrix(-0.85171795,-0.05587131,-0.05587131,0.85171795,303.41431,80.115677)"><path
             style="opacity:1;fill:#152238;fill-opacity:1;stroke-width:0.983698"
             d="m -190.55446,633.32905 -28.63335,-28.65654 v -16.58749 -16.58749 l -36.41716,-36.40288 c -33.79918,-33.78594 -36.66072,-36.40289 -39.80515,-36.40289 -3.72005,0 -5.42461,-1.97798 -5.42461,-6.29475 0,-2.77465 2.43573,-4.52593 6.29475,-4.52593 2.81372,0 4.52593,2.44385 4.52593,6.45989 0,2.17804 6.35552,9.01426 35.41312,38.09154 l 35.41312,35.43711 v -14.66606 -14.66608 l -26.53556,-26.54973 c -14.59456,-14.60234 -26.98915,-26.70092 -27.54354,-26.88572 -0.55438,-0.18479 -1.00798,-0.67658 -1.00798,-1.09285 0,-0.41627 -4.91585,-5.58068 -10.92411,-11.47648 -6.00826,-5.89578 -13.38856,-13.26492 -16.40065,-16.37587 -4.77697,-4.93372 -5.95429,-5.65626 -9.21643,-5.65626 -3.14653,0 -3.97801,-0.46047 -5.2407,-2.90224 -2.02579,-3.91743 -1.88793,-6.54761 0.46659,-8.90213 4.46816,-4.46817 13.48355,-0.26611 12.58366,5.8652 -0.37517,2.55618 3.43279,6.63444 44.16332,47.29812 l 44.57389,44.50074 v 18.13371 18.1337 l 43.73164,43.86363 c 24.0524,24.125 43.48106,44.26907 43.1748,44.76462 -0.70652,1.14315 0.77073,2.55402 -46.3473,-44.2645 -21.91593,-21.77661 -40.00733,-39.59384 -40.20313,-39.59384 -0.19581,0 -0.35601,5.69907 -0.35601,12.66458 v 12.66457 l 29.00994,28.89666 c 15.95547,15.89316 29.01406,29.22865 29.01909,29.63443 0.005,0.40577 -1.27111,0.73777 -2.83584,0.73777 -2.41713,0 -7.15107,-4.30957 -31.47833,-28.65654 z"
             id="path55855" /><path
             style="fill:#add8e6;fill-opacity:1;stroke-width:0.983698"
             d="m -385.84216,433.58687 c -1.58682,-2.26551 -1.14403,-6.61192 0.80681,-7.91961 0.59299,-0.39749 2.68653,-0.72949 4.6523,-0.73777 3.63492,-0.0154 4.73579,1.38278 4.77386,6.06278 0.0373,4.58048 -7.5029,6.49231 -10.23297,2.5946 z"
             id="path55857" /><path
             style="fill:#add8e6;fill-opacity:1;stroke-width:0.983698"
             d="m -374.65037,436.53331 c 1.10313,-1.18408 2.05618,-2.62274 2.11787,-3.19701 0.0617,-0.57428 0.25409,-2.23004 0.42754,-3.67948 0.21653,-1.80929 -0.48359,-3.4343 -2.23362,-5.18433 -4.92675,-4.92675 -10.66601,-4.53393 -14.06301,0.96253 -2.46343,3.98591 -2.06822,7.48738 1.24585,11.03786 2.85599,3.05971 9.68038,3.09269 12.50537,0.0604 z"
             id="path55859" /><path
             style="opacity:1;fill:#152238;fill-opacity:1;stroke-width:0.983698"
             d="m -236.03113,618.77136 -43.16225,-43.21422 v -20.01013 -20.01012 l -28.56638,-28.50547 c -15.71152,-15.67801 -34.63541,-34.58359 -42.05308,-42.01239 -25.39931,-25.43741 -23.83053,-24.04092 -25.1166,-22.35844 -1.70601,2.23186 -9.05958,2.45141 -12.27688,0.36654 -8.69048,-5.63159 -10.52243,-14.96193 -4.30921,-21.94737 4.88578,-5.49303 10.93257,-6.3988 17.40304,-2.60685 5.30544,3.10919 8.29798,9.88672 6.52739,14.78322 -0.61862,1.71077 -1.12269,3.74307 -1.12013,4.51621 0.003,0.77314 21.25043,22.65063 47.21749,48.61664 l 47.21285,47.21092 v 19.71101 19.71101 l 14.89501,14.97091 c 8.19224,8.23399 15.01648,14.97089 15.16497,14.97089 0.14848,0 3.07367,2.90747 6.50042,6.46103 16.52729,17.13892 40.18627,40.76248 40.87354,40.81234 0.42352,0.0307 2.90797,2.68672 5.52099,5.90219 l 4.75095,5.84631 h -3.14993 c -2.8413,0 -7.37901,-4.23417 -46.31219,-43.21423 z"
             id="path55861" /><path
             style="fill:#add8e6;fill-opacity:1;stroke-width:0.983698"
             d="m -305.1089,614.93657 c -3.44413,-3.80571 -0.96458,-9.02175 4.28865,-9.02175 2.95299,0 5.88771,2.97504 5.88771,5.9686 0,4.26023 -7.14419,6.40365 -10.17636,3.05315 z"
             id="path55863" /><path
             style="fill:#add8e6;fill-opacity:1;stroke-width:0.983698"
             d="m -295.37968,617.27205 c 4.95291,-4.9529 1.74779,-14.30833 -4.90193,-14.30833 -1.78719,0 -4.40061,0.91381 -5.83079,2.0388 -2.09118,1.64492 -2.59191,2.86638 -2.59191,6.32264 0,3.45625 0.50073,4.67771 2.59191,6.32263 3.50819,2.75954 7.7458,2.61119 10.73272,-0.37574 z"
             id="path55865" /><path
             style="opacity:1;fill:#152238;fill-opacity:1;stroke-width:0.983698"
             d="m -269.3564,653.28517 v -8.70042 l -11.88418,-11.71131 c -6.5363,-6.44121 -12.62293,-11.66502 -13.52584,-11.60845 -0.90292,0.0566 -3.19099,0.41254 -5.08461,0.79106 -3.48459,0.69655 -5.05634,-0.0272 -9.95377,-4.58278 -2.31689,-2.15523 -2.49743,-9.21352 -0.31534,-12.32889 1.84317,-2.6315 6.40658,-5.13175 9.36638,-5.13175 5.77202,0 11.53609,6.92307 10.43101,12.52844 -0.2948,1.49538 -0.67795,3.48599 -0.85143,4.42359 -0.20278,1.09594 3.78271,5.83833 11.16039,13.27992 l 11.4758,11.57521 -0.53174,-15.24732 -0.53175,-15.24731 -28.65062,-28.7957 c -21.26702,-21.3747 -29.11977,-28.68019 -30.4711,-28.3475 -2.77854,0.68403 -6.51829,-1.44592 -7.18204,-4.09051 -0.95792,-3.81663 1.41963,-7.13329 5.11351,-7.13329 3.75008,0 5.47334,1.77342 5.69432,5.8601 0.13697,2.53273 4.69743,7.54509 29.4271,32.34305 l 29.265,29.34582 v 16.62154 16.62155 l 9.07978,9.11768 c 6.58528,6.61277 8.55096,9.11769 7.15495,9.11769 -1.07284,0 -5.09188,-3.14589 -9.07978,-7.10719 l -7.15495,-7.10718 v 7.10718 c 0,5.66171 -0.3001,7.10719 -1.47554,7.10719 -1.20038,0 -1.47555,-1.62251 -1.47555,-8.70042 z"
             id="path55867" /></g><g
           id="g55885"
           transform="matrix(-0.79551879,-0.08211151,-0.08211151,0.79551879,731.73717,172.44756)"><path
             style="fill:#add8e6;fill-opacity:1;stroke-width:0.983698"
             d="m 566.63983,44.674827 c -4.1752,-5.30792 -1.15816,-12.163562 5.35296,-12.163562 6.71298,0 9.95493,8.639636 4.77181,12.716674 -3.62721,2.853164 -7.61683,2.635212 -10.12477,-0.553112 z"
             id="path55871" /><path
             style="fill:#add8e6;fill-opacity:1;stroke-width:0.983698"
             d="m 578.9833,48.421821 c 2.25887,-1.6472 4.308,-5.916396 4.308,-8.975348 0,-4.703653 -6.08856,-10.869999 -10.73288,-10.869999 -5.65893,0 -11.89217,5.638831 -11.89217,10.758123 0,9.448095 10.60637,14.709989 18.31705,9.087224 z"
             id="path55873" /><path
             style="opacity:1;fill:#152238;fill-opacity:1;stroke-width:0.983698"
             d="m 608.86744,130.15756 c -3.03457,-1.16845 -5.01756,-4.54913 -4.71973,-8.04638 0.28364,-3.33058 -0.96005,-4.69609 -38.56297,-42.340027 L 526.72868,40.872696 526.42754,20.460967 526.1264,0.04923831 h 4.33717 c 4.27011,0 4.54991,0.21410871 18.09218,13.84455769 l 13.755,13.844558 4.99261,-1.632999 c 4.82084,-1.576817 5.155,-1.561164 9.71286,0.454998 7.46161,3.300624 8.73556,5.231713 8.72707,13.228631 -0.005,4.559922 -0.41315,6.962083 -1.22962,7.234241 -0.67231,0.224101 -1.22237,0.995075 -1.22237,1.713276 0,1.799688 -7.79355,5.416115 -11.67195,5.416115 -4.71028,0 -12.82814,-4.8756 -12.94397,-7.774173 -0.0129,-0.322991 -0.4038,-2.224429 -0.86866,-4.225416 -0.58929,-2.536636 -0.45758,-4.385292 0.43505,-6.105832 0.70413,-1.35722 1.42703,-3.201137 1.60644,-4.097593 0.20675,-1.033106 -5.05438,-6.991756 -14.36834,-16.273293 -8.082,-8.0538549 -15.01512,-14.6433729 -15.40693,-14.6433729 -0.8679,0 -1.0362,20.1478189 -0.25885,30.9864799 l 0.56441,7.869582 38.20684,38.118289 38.20684,38.118283 h 4.36013 c 4.72265,0 6.03301,0.9672 7.10684,5.24571 0.92453,3.68362 -1.03969,7.18173 -4.76105,8.479 -1.62626,0.56692 -3.00146,0.99581 -3.05597,0.9531 -0.0545,-0.0427 -0.76314,-0.33333 -1.57469,-0.64582 z"
             id="path55875" /><path
             style="opacity:1;fill:#152238;fill-opacity:1;stroke-width:0.983698"
             d="m 579.1319,268.84949 c -3.08648,-1.91395 -4.93841,-6.31173 -4.08677,-9.70488 0.51441,-2.04963 -6.64093,-9.55723 -58.54054,-61.42252 L 457.37798,138.63462 V 114.40904 90.183465 L 412.0291,45.116352 C 374.73804,8.0569957 367.12503,0.04923831 369.18359,0.04923831 c 1.98836,0 11.19272,8.70192439 44.74123,42.29900469 23.23083,23.264452 42.5113,42.299004 42.84551,42.299004 0.33422,0 0.60765,-7.544571 0.60765,-16.765715 V 51.115817 l -3.68886,-4.046124 c -2.02888,-2.225368 -4.69138,-4.972735 -5.91667,-6.105258 -1.22528,-1.132525 -8.30791,-8.200836 -15.73916,-15.707359 -7.43125,-7.506523 -15.01819,-15.031811 -16.85986,-16.722862 -1.84166,-1.6910502 -4.48191,-4.1812979 -5.8672,-5.5338823 l -2.51874,-2.4592445 4.29364,-0.30971134 4.29364,-0.30971134 23.91973,23.91845848 23.91974,23.918458 0.13429,22.074599 0.13428,22.074599 48.3458,48.282981 c 40.16352,40.11135 48.73731,48.22364 50.65916,47.93234 3.90161,-0.59138 6.47731,0.57558 8.3801,3.79674 1.74877,2.96046 1.75219,3.2328 0.0866,6.92638 -1.61594,3.58361 -2.01385,3.84476 -5.85848,3.84476 -5.30511,0 -7.38079,-2.19333 -7.38079,-7.79912 v -4.20126 l -46.67243,-46.49205 c -31.40376,-31.2824 -46.85075,-46.027372 -47.21749,-45.071645 -0.29979,0.781233 -0.54507,9.261705 -0.54507,18.845515 v 17.4251 l 17.46064,17.36054 c 9.60335,9.5483 19.89528,19.76219 22.87097,22.69753 2.97569,2.93535 8.1405,8.16148 11.47737,11.61363 3.33687,3.45215 19.28945,19.44588 35.45018,35.54164 l 29.38315,29.26501 4.38957,0.0151 c 2.41427,0.008 4.84247,0.34028 5.39601,0.73777 1.91716,1.37671 4.4039,6.074 4.40024,8.31176 -0.006,3.85638 -3.41255,8.29233 -6.90357,8.99053 -4.42303,0.88461 -5.0343,0.80272 -8.07283,-1.0815 z"
             id="path55877" /><path
             style="fill:#add8e6;fill-opacity:1;stroke-width:0.983698"
             d="m 674.02312,285.28565 c -3.52411,-1.4158 -4.54648,-5.42603 -2.46728,-9.67792 1.45804,-2.98168 2.32048,-3.61443 5.26287,-3.86124 5.00953,-0.4202 8.18694,2.36682 8.18694,7.18106 0,5.94193 -4.9235,8.79229 -10.98253,6.3581 z"
             id="path55879" /><path
             style="fill:#add8e6;fill-opacity:1;stroke-width:0.983698"
             d="m 683.15206,289.82323 c 6.29561,-3.2662 8.23033,-11.51958 4.16528,-17.7687 -4.42946,-6.80935 -12.65458,-7.2052 -18.19841,-0.87584 -8.82188,10.07189 2.2368,24.76454 14.03313,18.64454 z"
             id="path55881" /><path
             style="opacity:1;fill:#152238;fill-opacity:1;stroke-width:0.983698"
             d="m 672.24244,296.57038 c -5.04472,-1.70604 -11.93601,-9.21207 -12.82931,-13.97374 -0.58904,-3.13986 0.19853,-8.22172 2.01689,-13.01421 0.38273,-1.00874 -19.12454,-21.2373 -61.66041,-63.94036 L 537.54935,143.17726 537.0575,116.37998 536.56566,89.582693 492.55337,45.553739 C 468.34662,21.337814 448.21387,1.1643591 447.81392,0.72383759 447.41398,0.28331707 449.18955,0.06198507 451.75961,0.2319887 l 4.67286,0.3090985 43.26361,43.1916078 43.26361,43.191608 v 27.388707 c 0,19.9781 0.30595,27.3887 1.13076,27.3887 0.62192,0 28.35583,27.26256 61.63091,60.58346 55.27954,55.35567 60.72064,60.53004 63.05551,59.96454 12.84592,-3.11135 20.77023,-0.28999 25.9182,9.22789 7.08434,13.09791 -8.01679,29.97474 -22.45263,25.09278 z"
             id="path55883" /></g></g></clipPath></defs><g
     id="g14966"><circle
       id="path38156"
       style="fill:#008cba;stroke:#008cba"
       cx="1558"
       cy="630"
       r="0" /><g
       id="g66025"
       transform="translate(6,1)"><rect
         style="font-variation-settings:'wght' 800;opacity:0;fill:#cccccc;fill-opacity:1;stroke:none;stroke-width:0.4;stroke-dasharray:none;stroke-opacity:1;stop-color:#000000"
         id="rect46568"
         width="746"
         height="744"
         x="-1"
         y="-3"
         ry="0" /><rect
         style="font-variation-settings:'wght' 800;fill:#ffffff;fill-opacity:1;stroke:none;stroke-width:1.53268;stroke-dasharray:none;stroke-opacity:1;stop-color:#000000"
         id="rect65889"
         width="742.29999"
         height="742.29999"
         x="-5.6537156"
         y="0.6764645" /><rect
         style="font-variation-settings:'wght' 800;fill:none;fill-opacity:1;stroke:#000000;stroke-width:2.85437;stroke-dasharray:none;stroke-opacity:1;stop-color:#000000"
         id="rect49809"
         width="739.44513"
         height="739.44513"
         x="-4.2263007"
         y="2.103893" /><g
         id="g1"><text
           xml:space="preserve"
           style="font-style:normal;font-variant:normal;font-weight:bold;font-stretch:normal;font-size:88.1752px;font-family:sans-serif;-inkscape-font-specification:'sans-serif, Bold';font-variant-ligatures:normal;font-variant-caps:normal;font-variant-numeric:normal;font-variant-east-asian:normal;fill:#ffc42b;fill-opacity:1;stroke:#ffc42b;stroke-width:0.257135;stroke-linecap:butt;stroke-linejoin:miter;stroke-miterlimit:4;stroke-dasharray:none;stroke-dashoffset:0;stroke-opacity:1;stop-color:#000000"
           x="367.3143"
           y="394.71634"
           id="text18719"
           transform="scale(1.0592125,0.9440976)"><tspan
             id="tspan18717"
             x="367.3143"
             y="394.71634"
             style="font-style:normal;font-variant:normal;font-weight:bold;font-stretch:normal;font-size:88.1752px;font-family:sans-serif;-inkscape-font-specification:'sans-serif, Bold';font-variant-ligatures:normal;font-variant-caps:normal;font-variant-numeric:normal;font-variant-east-asian:normal;fill:#ffc42b;fill-opacity:1;stroke-width:0.257135;stroke-dasharray:none">Nitya</tspan></text><g
           id="g46421"
           transform="matrix(1.3061627,0,0,1.3061627,-273.91194,-76.387978)"><g
             id="g36324"
             transform="matrix(0.60571209,0,0,0.60571209,-78.297662,64.619978)"><path
               id="path392"
               style="fill:#ffc42b;fill-opacity:1;stroke-width:0.191667"
               d="m 825.13469,386.54574 c -0.33482,0.0476 -0.71744,0.52073 -1.49176,1.4682 -1.69802,2.07768 -6.15794,6.45817 -7.42259,7.29045 -3.11087,2.04726 -6.38335,1.97745 -12.97795,-0.27665 -4.32844,-1.4795 -4.25659,-1.47541 -4.45214,-0.25755 -1.68803,10.51249 -3.713,13.69486 -10.01234,15.73577 -1.53909,0.49864 -6.87525,1.60344 -8.67929,1.79688 -0.19075,0.0204 0.0534,1.07897 0.63303,2.74435 2.06677,5.93762 2.56752,10.70442 1.38846,13.22051 -1.24154,2.64947 -4.35707,6.16606 -7.68388,8.67255 -0.69727,0.52533 -1.27175,1.08853 -1.27654,1.25182 -0.005,0.16329 0.8863,1.00914 1.9803,1.87961 7.99127,6.35855 9.11136,10.06768 5.93157,19.63948 -0.82478,2.48275 -1.19685,3.86398 -1.07401,3.98682 0.10339,0.10338 1.08474,0.3128 2.18096,0.46532 7.43259,1.03408 11.34114,2.7979 13.27815,5.99183 1.2257,2.02107 2.92304,7.7535 3.28379,11.09084 0.15792,1.46101 0.25674,1.50004 2.02373,0.8026 5.7378,-2.26472 11.56161,-2.90656 14.36156,-1.58274 2.19127,1.03605 6.79604,5.21806 8.99935,8.17316 1.0259,1.37596 0.93195,1.39213 2.23036,-0.38333 2.41887,-3.30764 6.86774,-7.14356 9.37146,-8.08033 2.61229,-0.97738 8.37292,-0.18158 13.78615,1.90432 1.7838,0.68735 1.78357,0.68766 2.02225,-1.19492 0.47733,-3.76483 2.02264,-9.14207 3.09023,-10.75393 1.93057,-2.9146 7.3975,-5.24269 14.51877,-6.18313 1.31901,-0.17419 1.33209,-0.2412 0.50951,-2.59686 -2.63465,-7.5445 -2.85373,-11.31302 -0.84793,-14.58951 1.40866,-2.30098 4.1022,-5.1402 6.90303,-7.27622 1.58953,-1.21224 1.59782,-1.27155 0.31893,-2.27343 -3.51381,-2.75274 -6.34748,-5.92639 -7.67716,-8.59805 l -0.80413,-1.61531 0.0107,-2.60136 c 0.0127,-3.05249 0.36136,-4.73115 1.84889,-8.89566 0.52106,-1.45878 0.90583,-2.76058 0.85504,-2.89297 -0.0531,-0.1382 -1.0948,-0.42751 -2.44642,-0.67944 -12.11091,-2.25748 -14.59391,-4.91177 -16.38412,-17.51393 -0.12912,-0.90917 -0.0847,-0.91386 -3.82507,0.41515 -3.69304,1.31221 -6.02997,1.81154 -8.52172,1.82159 -2.92083,0.0118 -3.32707,-0.17809 -7.98973,-3.73526 -0.92163,-0.70311 -3.0094,-3.02381 -4.75537,-5.28581 -0.5824,-0.75456 -0.86946,-1.13247 -1.20428,-1.08486 z m 0.22165,11.93912 c 1.10656,-0.007 2.20343,0.0335 3.28188,0.12278 2.20078,0.18213 2.99083,0.27296 3.13369,0.36125 0.0867,0.0536 0.80708,0.23168 1.60112,0.39569 9.78845,2.02186 20.8844,9.52837 25.05181,16.94791 0.35921,0.63953 0.79335,1.31536 0.96505,1.50189 1.01285,1.10038 3.75959,7.72367 4.59176,11.0725 3.62825,14.60079 -1.67454,30.16444 -13.52525,39.69598 -0.98385,0.79132 -1.78901,1.51055 -1.78901,1.59847 0,0.0879 -0.21064,0.21274 -0.46828,0.2774 -0.25759,0.0647 -1.03272,0.50413 -1.72238,0.9763 -4.43264,3.03468 -11.46445,5.46453 -17.45517,6.03151 -14.20317,1.34427 -26.43009,-4.01709 -35.89971,-15.74138 -0.65316,-0.80869 -1.1878,-1.54947 -1.1878,-1.64601 0,-0.0966 -0.3286,-0.64229 -0.73035,-1.21289 -2.42354,-3.44208 -5.34128,-11.34282 -5.69199,-15.41271 -0.0363,-0.42166 -0.11868,-1.28417 -0.18306,-1.91667 -1.22107,-11.99676 4.10719,-25.06266 13.47209,-33.03669 1.28342,-1.09281 2.33331,-2.06192 2.33331,-2.15363 0,-0.0917 0.29512,-0.29025 0.65586,-0.44098 0.36075,-0.15073 1.21502,-0.65668 1.89831,-1.12454 5.7004,-3.90314 13.92183,-6.24905 21.66812,-6.29618 z m 0.5641,1.54943 c -0.72898,-0.0179 -1.45646,-0.0149 -2.18168,0.009 -12.76394,0.42027 -24.82927,7.26697 -32.09895,19.24118 -5.9105,9.73535 -6.58868,23.78236 -1.64789,34.13577 6.11859,12.82145 16.97956,20.8028 30.65097,22.52422 2.03533,0.25628 9.27521,0.0797 11.15637,-0.27215 14.15871,-2.64841 25.50225,-12.48398 29.97451,-25.98957 2.21053,-6.67552 2.61106,-12.38765 1.3001,-18.5374 -2.66936,-12.52186 -10.52766,-22.42299 -21.88148,-27.56969 -4.99252,-2.26314 -10.16906,-3.41634 -15.27195,-3.54134 z m 2.40333,3.13929 c 0.52892,-0.0991 1.27256,0.0441 2.80612,0.32194 1.80624,0.32727 2.76458,0.55322 4.54048,1.06989 0.17796,0.0518 0.42443,0.41345 0.54807,0.80373 0.12363,0.39027 0.43129,1.07047 0.68356,1.51162 l 0.45857,0.80223 -1.41952,3.0311 c -0.78089,1.66719 -2.10895,4.43188 -2.95102,6.14382 -2.26243,4.59966 -2.44829,6.18313 -0.7266,6.18313 1.07212,0 1.00104,0.11948 2.38799,-4.025 0.6526,-1.9502 1.76619,-5.18137 2.47441,-7.18039 l 1.28741,-3.63456 1.24582,-0.45147 c 2.03901,-0.73927 1.96547,-0.74479 3.59076,0.25831 4.66561,2.87941 4.94162,3.16051 4.92459,5.01253 -0.0173,1.86859 0.13445,1.64499 -2.96671,4.37764 -5.60392,4.93798 -7.08198,6.28472 -7.08198,6.45266 0,0.27904 1.22338,1.67478 1.47119,1.67858 0.12387,0.002 0.85699,-0.71367 1.6292,-1.59024 0.77218,-0.87657 2.81652,-3.11908 4.54309,-4.98333 l 3.13929,-3.38974 h 1.7808 1.78077 l 0.93697,1.29376 c 1.23953,1.71161 3.31207,5.03639 3.3044,5.30078 -0.004,0.11533 -0.13468,0.37978 -0.29162,0.58736 -0.1569,0.20757 -0.37797,0.72508 -0.49152,1.14999 -0.29381,1.09927 -0.37732,1.16222 -2.43552,1.84218 -1.01995,0.33696 -3.70888,1.30221 -5.97538,2.14502 -3.42945,1.27528 -4.36198,1.54736 -5.55835,1.62243 -1.56188,0.098 -1.91664,0.32006 -1.91664,1.19866 0,0.82309 0.31541,0.95984 2.21018,0.95984 1.50503,0 1.88177,-0.0687 2.69269,-0.49115 1.3972,-0.72784 7.62169,-3.67155 9.30932,-4.40272 l 1.46593,-0.63527 1.2174,0.47392 c 0.6694,0.26071 1.39205,0.54564 1.60595,0.63303 0.57661,0.23559 1.55379,3.79567 1.89758,6.91385 l 0.11604,1.05417 -1.04929,1.10208 -1.04895,1.10209 h -6.49046 -6.49045 l -0.41668,-0.47917 c -0.39635,-0.45585 -0.51742,-0.47917 -2.48792,-0.47917 -2.38718,0 -2.53134,0.0773 -2.53134,1.35665 0,1.29641 0.16491,1.37156 2.71778,1.23685 1.19342,-0.063 5.21252,-0.15813 8.93122,-0.21114 l 6.76113,-0.0962 1.14812,1.18781 c 0.70615,0.73067 1.11428,1.30528 1.06019,1.49254 -0.0485,0.16744 -0.1465,0.73559 -0.21789,1.26268 -0.47469,3.50424 -1.24172,5.96982 -1.94849,6.26211 -0.29204,0.12076 -0.98293,0.41606 -1.53521,0.65661 l -1.00438,0.43761 -2.44039,-1.15375 c -5.19254,-2.45419 -8.15487,-4.0095 -8.5198,-4.47347 -0.48074,-0.61114 -4.6114,-0.76496 -4.83585,-0.18006 -0.43675,1.13822 0.096,1.99678 1.2391,1.99678 0.94116,0 2.80739,0.61408 8.98248,2.95549 5.39152,2.04428 5.30041,1.99709 5.48573,2.85591 0.0723,0.33532 0.29983,0.94245 0.50576,1.34915 l 0.37471,0.73934 -0.66783,1.0815 c -0.36723,0.59474 -1.30831,2.02397 -2.09149,3.17597 l -1.42401,2.09449 -1.85343,0.0415 -1.853,0.0419 -4.51427,-5.05933 c -2.48282,-2.78255 -4.62406,-5.05933 -4.75837,-5.05933 -0.39569,0 -1.49954,1.4961 -1.32407,1.79463 0.0842,0.14326 0.63453,0.68214 1.22299,1.19754 0.58846,0.5154 2.76635,2.52538 4.83958,4.46636 l 3.76968,3.52899 v 1.5936 1.59361 l -1.00625,0.79886 c -0.55344,0.43943 -1.96966,1.44182 -3.14712,2.22775 l -2.14056,1.42927 -1.2462,-0.49863 c -0.68529,-0.27417 -1.37149,-0.49864 -1.52505,-0.49864 -0.4715,0 -0.67079,-0.40657 -1.84107,-3.75734 -3.39823,-9.7297 -4.11022,-11.38433 -4.89762,-11.38433 -1.52912,0 -1.27125,1.98399 0.82431,6.34372 0.9324,1.93989 2.28003,4.74814 2.99478,6.2404 l 1.29937,2.71328 -0.59893,1.19867 c -0.32949,0.65925 -0.59897,1.31212 -0.59897,1.45097 0,0.61366 -3.6337,1.61166 -7.02019,1.9279 l -1.22671,0.11456 -1.17175,-1.17172 -1.1717,-1.17171 0.10484,-6.15542 c 0.0893,-5.24181 0.14968,-6.20503 0.40766,-6.4901 0.38335,-0.42356 0.44415,-4.39915 0.073,-4.77033 -0.33566,-0.33565 -1.7935,-0.28749 -2.15214,0.0711 -0.43958,0.43955 -0.43563,4.21615 0.005,4.70295 0.26231,0.28988 0.32142,1.23171 0.41253,6.58106 l 0.1063,6.24339 -1.13127,1.04369 c -1.43414,1.32332 -2.62886,1.34081 -7.38554,0.10781 -1.95684,-0.50723 -1.75867,-0.35643 -2.2551,-1.71789 -0.23051,-0.63222 -0.50165,-1.20061 -0.60269,-1.26305 -0.38615,-0.23866 -0.11378,-0.99174 2.19445,-6.07082 1.30785,-2.8779 2.59195,-5.70704 2.85365,-6.28682 0.61371,-1.35965 0.80264,-2.94608 0.39904,-3.34968 -0.36547,-0.36547 -1.30003,-0.37891 -1.65537,-0.0236 -0.25767,0.2577 -2.51722,6.69374 -4.17884,11.90244 -0.43716,1.37041 -0.8731,2.57477 -0.96881,2.67622 -0.14248,0.151 -1.6559,0.73779 -3.04684,1.18144 -0.27743,0.0885 -5.38562,-3.16393 -6.26286,-3.98756 -0.64827,-0.60867 -0.54964,-3.59909 0.1404,-4.25486 0.76539,-0.72741 4.67827,-4.27984 7.06768,-6.41672 1.22073,-1.0917 2.24701,-2.10268 2.28053,-2.24684 0.0647,-0.2779 -1.0679,-1.80586 -1.33865,-1.80586 -0.2017,0 -0.32876,0.13188 -3.22653,3.35492 -1.3177,1.46562 -3.23672,3.5895 -4.26458,4.71942 l -1.86876,2.05443 -1.79311,0.003 c -2.07625,0.004 -1.56989,0.42268 -4.21332,-3.47696 -1.85288,-2.73342 -1.79373,-2.57285 -1.30011,-3.54808 0.19796,-0.39111 0.41848,-0.98267 0.49003,-1.31434 0.18066,-0.83751 0.51645,-1.06701 2.59985,-1.77816 1.00146,-0.34183 3.71832,-1.3578 6.03751,-2.25732 3.27996,-1.27219 4.5147,-1.66245 5.55831,-1.75682 l 1.34169,-0.12129 v -1.05417 -1.05417 l -2.24348,-0.0539 c -2.2299,-0.0536 -2.24582,-0.0506 -2.5699,0.44398 -0.36044,0.55013 -0.82101,0.80003 -6.78246,3.68359 l -4.12083,1.99341 -0.76667,-0.3867 c -0.42168,-0.21274 -1.09061,-0.51726 -1.48654,-0.67645 -0.40687,-0.16357 -0.7926,-0.48103 -0.88685,-0.72998 -0.28873,-0.76291 -0.95992,-3.63104 -1.26229,-5.39362 l -0.29086,-1.69468 1.10094,-1.22675 1.10059,-1.22674 6.61251,0.0891 c 3.63688,0.0489 7.67574,0.13975 8.97504,0.20177 2.71973,0.12984 2.9097,0.0557 2.90532,-1.13165 -0.005,-1.24056 -0.0663,-1.27331 -2.63956,-1.4027 l -2.32281,-0.11679 -0.23135,0.50762 -0.23136,0.50799 -6.53388,-0.004 -6.53391,-0.004 -1.00626,-1.13091 c -1.17639,-1.32173 -1.17082,-1.2746 -0.52782,-4.45101 0.66894,-3.3044 0.93378,-4.22908 1.2552,-4.38213 0.15342,-0.0731 0.87025,-0.4071 1.59286,-0.74234 l 1.31358,-0.60944 4.05308,1.85453 c 2.22906,1.01994 4.79873,2.23508 5.7103,2.70055 1.63296,0.83374 1.68855,0.84694 3.73754,0.88496 l 2.07987,0.0386 v -0.95833 -0.95834 l -1.34169,-0.1546 c -1.4357,-0.16544 -2.96191,-0.63851 -9.5661,-2.9656 -2.30967,-0.81384 -4.26742,-1.60918 -4.35068,-1.7673 -0.0832,-0.15813 -0.38501,-0.83059 -0.67047,-1.4944 l -0.51883,-1.2069 0.44433,-0.8056 c 0.59268,-1.07433 3.03341,-4.64374 3.57506,-5.22816 0.39111,-0.42201 0.5819,-0.46494 2.06303,-0.46494 h 1.63176 l 1.68345,1.88372 c 0.92596,1.03587 2.97027,3.3215 4.54273,5.07917 1.57247,1.75766 2.92862,3.19545 3.01389,3.19545 0.23393,0 1.4102,-1.34519 1.4102,-1.6127 0,-0.12839 -1.94066,-2.0042 -4.31253,-4.16838 -2.37188,-2.16418 -4.58394,-4.19013 -4.91596,-4.5023 -0.59859,-0.56287 -0.60346,-0.58223 -0.56636,-2.32246 0.0207,-0.96512 0.0768,-1.79215 0.12467,-1.83805 0.34591,-0.33169 4.87338,-3.37656 5.56729,-3.74424 l 0.86662,-0.45933 1.26753,0.50724 c 0.69722,0.27892 1.35776,0.50687 1.46786,0.50687 0.31237,0 0.40885,0.25119 2.90605,7.57084 1.29477,3.79499 2.4364,7.00782 2.53733,7.13959 0.24382,0.31824 1.79231,0.31402 1.91484,-0.005 0.37824,-0.9857 -0.21118,-2.58912 -3.66714,-9.97865 l -2.31648,-4.95301 0.44997,-0.89283 c 0.24743,-0.4911 0.50925,-1.16731 0.58175,-1.50263 0.0725,-0.33533 0.234,-0.69171 0.35899,-0.79175 0.55761,-0.4463 7.32711,-1.69946 7.94108,-1.47007 0.18482,0.0691 0.78809,0.63356 1.34015,1.25444 l 1.00364,1.12866 -0.12168,6.28158 c -0.0964,4.97513 -0.17588,6.31367 -0.38108,6.43507 -0.40904,0.24198 -0.36869,4.45954 0.0442,4.61797 0.52199,0.20031 1.90963,0.12682 2.15023,-0.1138 0.34045,-0.34043 0.31088,-3.95998 -0.0357,-4.3548 -0.20864,-0.23779 -0.29373,-1.65755 -0.39719,-6.62786 l -0.13177,-6.325 1.16722,-1.19792 c 0.67373,-0.6915 0.98795,-1.03292 1.51684,-1.13203 z m 1.45623,7.09579 c -0.22437,-0.0461 -0.45907,-0.0457 -0.68582,0.008 -0.30233,0.0714 -0.59061,0.23704 -0.82204,0.51211 -0.62836,0.74665 -0.62472,1.14453 0.0169,1.90694 l 0.51286,0.60981 -0.21897,2.32583 c -0.12034,1.27919 -0.30946,2.35586 -0.4204,2.39284 -0.63864,0.21288 -0.77006,0.65565 -0.77006,2.59611 0,1.30761 0.0795,2.03955 0.23849,2.19856 0.1442,0.14427 0.61723,0.21639 1.1979,0.1823 l 0.95946,-0.0565 0.0547,-2.18171 c 0.0448,-1.79668 0,-2.24241 -0.25644,-2.52536 -0.26938,-0.29765 -0.2833,-0.52363 -0.10258,-1.68831 0.11474,-0.73951 0.20853,-1.78099 0.20853,-2.31423 0,-0.53324 0.0739,-0.96956 0.16396,-0.96956 0.41322,0 1.17769,-0.9723 1.17769,-1.49778 0,-0.80346 -0.58087,-1.36074 -1.25403,-1.49889 z m -8.35358,0.31333 c -1.47768,0 -1.95673,1.79386 -0.76891,2.87874 0.91077,0.83189 1.12789,4.78793 0.26277,4.78793 -0.67232,0 -0.81122,0.39744 -0.81122,2.32284 0,1.02446 0.0524,1.99923 0.11642,2.16598 0.19426,0.50626 2.30992,0.42717 2.47484,-0.0925 0.15072,-0.47483 -0.0396,-4.79812 -0.31257,-7.10028 -0.19088,-1.60916 -0.18367,-1.66753 0.29607,-2.3745 0.91565,-1.34929 0.3138,-2.58825 -1.2574,-2.58825 z m 8.02601,0.61168 c 0.21218,0.0409 0.33582,0.23904 0.33582,0.53832 0,0.54637 -0.60484,0.77809 -0.78763,0.30173 -0.17439,-0.45442 0.0724,-0.91311 0.45181,-0.84005 z m -7.90586,0.34665 c 0.23695,0 0.63629,0.63424 0.54657,0.86812 -0.13695,0.35676 -0.71801,0.36548 -1.0089,0.015 -0.19492,-0.23486 0.14443,-0.88309 0.46233,-0.88309 z m 14.18334,12.55418 -10.42862,0.0318 c -11.57355,0.0351 -11.69071,0.0462 -12.86602,1.2215 -1.3319,1.33198 -1.33455,1.35462 -1.33455,12.55043 0,10.83543 0.0242,11.12126 1.0508,12.46732 0.647,0.84829 1.25303,1.24176 2.37037,1.5397 1.12326,0.29952 20.63843,0.15796 21.67107,-0.15723 0.94891,-0.28961 2.23792,-1.56242 2.64141,-2.60809 0.49812,-1.29079 0.53329,-21.18474 0.0393,-22.26629 -0.47515,-1.04042 -1.24705,-1.84497 -2.23784,-2.33294 z m -10.43089,2.68333 h 9.31085 l 0.68652,0.52409 c 1.30934,0.99862 1.31782,1.07307 1.2556,11.07175 -0.0615,9.87854 -0.0284,9.62259 -1.36302,10.61767 -0.53057,0.39565 -0.71578,0.40409 -9.67915,0.43761 -10.54593,0.0394 -10.55107,0.0385 -11.46932,-1.72687 -0.33727,-0.64838 -0.40325,-17.55302 -0.073,-18.69537 0.65897,-2.27944 0.40018,-2.22888 11.33152,-2.22888 z m -8.95067,1.32707 c -0.20209,0.0223 -0.41261,0.0849 -0.62629,0.19541 -1.30244,0.67352 -1.15444,2.77334 0.22089,3.13555 0.78253,0.20609 1.15529,0.11147 1.65498,-0.42039 1.16971,-1.24509 0.16495,-3.06676 -1.24958,-2.91057 z m 12.61517,1.63553 c -0.0474,-0.0177 -0.0972,-0.0135 -0.14673,0.0109 -0.19795,0.0975 -0.39236,0.52154 -0.4275,1.19529 -0.0488,0.93485 -0.11297,1.10209 -0.4219,1.10209 -0.30892,0 -0.37275,-0.16724 -0.42151,-1.10209 -0.0539,-1.03244 -0.0879,-1.10208 -0.53683,-1.10208 -0.44886,0 -0.48258,0.0696 -0.53644,1.10208 -0.0488,0.93485 -0.11294,1.10209 -0.42186,1.10209 -0.30896,0 -0.37275,-0.16724 -0.42155,-1.10209 -0.0539,-1.03244 -0.0879,-1.10208 -0.53679,-1.10208 -0.4489,0 -0.48258,0.0696 -0.53644,1.10208 -0.0488,0.93485 -0.11298,1.10209 -0.4219,1.10209 -0.30892,0 -0.37276,-0.16724 -0.42151,-1.10209 -0.0539,-1.03244 -0.088,-1.10208 -0.53683,-1.10208 -0.44952,0 -0.48255,0.0691 -0.53683,1.11443 -0.0717,1.38171 -0.68996,1.56981 -0.73331,0.22312 -0.0472,-1.46451 -0.0469,-1.46331 -0.50276,-1.39857 -0.38166,0.0542 -0.43786,0.1872 -0.48853,1.15637 -0.0565,1.07978 -0.0666,1.09666 -0.71203,1.21775 -0.80136,0.15034 -1.08059,0.46547 -1.22974,1.38659 -0.11033,0.68147 -0.14969,0.71293 -1.02156,0.81346 -1.64113,0.18922 -1.70562,0.91302 -0.10036,1.12792 1.19273,0.15968 1.28484,0.77862 0.11643,0.78276 -1.72196,0.006 -1.89604,1.01175 -0.19204,1.10957 1.29339,0.0743 1.39394,0.66775 0.13062,0.77079 -1.50732,0.12293 -1.60787,0.9342 -0.12762,1.02983 0.74662,0.0482 0.89354,0.12071 0.89354,0.44099 0,0.32027 -0.14692,0.39312 -0.89354,0.44135 -1.46114,0.0944 -1.53062,0.99614 -0.0768,0.99614 0.92423,0 1.43812,0.37874 1.00364,0.73934 -0.14243,0.11822 -0.59621,0.19437 -1.00852,0.16921 -0.68402,-0.0418 -0.7498,-0.004 -0.7498,0.43312 0,0.43177 0.0937,0.49019 0.94675,0.5881 0.52064,0.0598 0.9748,0.18914 1.00921,0.28751 0.29101,0.83133 0.5992,1.14455 1.21179,1.23273 0.63484,0.0914 0.66833,0.13565 0.7266,0.95459 0.0338,0.4723 0.1521,0.96824 0.26316,1.10208 0.47825,0.57626 0.92163,0.0226 0.92163,-1.15075 0,-0.78665 0.053,-0.92343 0.33543,-0.86849 0.26235,0.051 0.33543,0.26057 0.33543,0.96208 0,1.7065 0.99455,1.81082 1.09199,0.11455 0.0835,-1.45353 0.72883,-1.62458 0.72883,-0.19316 0,1.75223 1.08827,1.92748 1.18781,0.19129 0.0499,-0.86904 0.11355,-1.01636 0.44139,-1.01636 0.32511,0 0.37406,0.10727 0.32193,0.70602 -0.0742,0.85229 0.25613,1.54399 0.6974,1.46034 0.24064,-0.0456 0.34663,-0.32809 0.41814,-1.11219 0.12935,-1.41831 0.76669,-1.68186 0.76669,-0.31708 0,1.09533 0.14573,1.46708 0.57499,1.46708 0.40364,0 0.575,-0.3689 0.575,-1.23798 0,-0.70501 0.25146,-0.99338 0.95197,-1.0916 0.44093,-0.0618 0.79285,-0.52017 1.04404,-1.36 0.0783,-0.26171 0.31226,-0.33542 1.06468,-0.33542 0.83083,0 0.96433,-0.0522 0.96433,-0.3766 0,-0.47452 -0.54627,-0.77341 -1.41358,-0.77341 -1.35495,0 -0.95354,-0.70061 0.45899,-0.8011 1.32343,-0.0942 1.25001,-0.78889 -0.0977,-0.9239 -1.38925,-0.13916 -1.51216,-0.76666 -0.15011,-0.76666 1.07665,0 1.47108,-0.26442 1.18667,-0.79587 -0.14466,-0.27034 -0.41166,-0.35413 -1.12978,-0.35413 -1.57124,0 -1.40743,-0.68739 0.19092,-0.80111 0.72227,-0.0514 0.86862,-0.12994 0.92014,-0.49264 0.0642,-0.45188 -0.0881,-0.50843 -1.1732,-0.43612 -0.29519,0.0197 -0.66273,-0.0686 -0.81687,-0.19653 -0.45853,-0.38058 0.0385,-0.75694 0.99989,-0.75694 0.59045,0 0.8797,-0.0903 0.96022,-0.30023 0.18356,-0.47837 -0.26761,-0.75393 -1.23497,-0.75393 -0.87751,0 -0.89872,-0.0142 -1.00736,-0.67721 -0.15107,-0.92177 -0.27582,-1.08053 -1.05006,-1.33604 -0.69139,-0.22819 -0.8054,-0.44539 -0.90406,-1.72426 -0.0365,-0.47433 -0.15893,-0.72195 -0.30137,-0.7749 z m -29.75512,2.47445 c -0.17537,-0.0289 -0.34744,-0.0249 -0.52034,0.0112 -0.23054,0.0481 -0.46234,0.15291 -0.7049,0.31184 -0.93762,0.61434 -0.72877,2.21792 0.34964,2.68445 0.63762,0.27584 1.17731,0.20287 1.6666,-0.22536 0.42278,-0.37001 0.82448,-0.3303 1.23385,0.12204 0.33394,0.36902 0.54565,0.38453 4.58164,0.33542 l 4.23167,-0.0517 0.0569,-1.19193 c 0.069,-1.44567 0.0877,-1.43671 -2.83609,-1.35552 l -2.01247,0.0558 -0.0958,0.76667 -0.0959,0.76667 -1.48017,0.0562 -1.48016,0.0558 -1.1223,-1.15786 c -0.69071,-0.71252 -1.24598,-1.09689 -1.77217,-1.18369 z m 44.62881,0.65174 c -0.41453,-0.007 -0.92512,1.2e-4 -1.4293,0.0168 -1.00829,0.0335 -1.99118,0.10687 -2.13082,0.19317 -0.39048,0.24132 -0.30021,1.99024 0.11421,2.21203 0.36796,0.19692 9.16085,0.34761 9.34825,0.16022 0.06,-0.06 0.42293,0.10405 0.80635,0.36424 1.71793,1.16581 3.40659,-1.00377 1.84851,-2.37487 -0.85795,-0.755 -2.12916,-0.3896 -2.47894,0.71238 -0.11516,0.36298 -0.27973,0.38971 -2.38645,0.38971 h -2.26259 l -0.12053,-0.75357 c -0.0766,-0.47907 -0.24256,-0.79122 -0.45558,-0.85651 -0.12018,-0.0369 -0.43862,-0.057 -0.85311,-0.0636 z m -44.93652,0.33205 c 0.38367,0 0.76354,0.51721 0.6319,0.86025 -0.14368,0.37445 -0.8692,0.37601 -1.01261,0.002 -0.15183,-0.39568 0.0544,-0.8625 0.38071,-0.8625 z m 52.63535,0.8318 c 0.30938,0.0746 0.58639,0.46551 0.45746,0.80148 -0.15644,0.40762 -0.60707,0.48342 -0.93325,0.15723 -0.35109,-0.35108 -0.29983,-0.62661 0.16959,-0.91416 0.0964,-0.0591 0.20305,-0.0694 0.3062,-0.0446 z m -8.96939,6.0682 c -2.31637,0 -2.57331,0.15605 -2.48566,1.50863 l 0.0572,0.88721 2.33819,0.0539 c 2.18268,0.0502 2.35189,0.0279 2.54634,-0.33541 0.18648,-0.34845 0.39551,-0.38933 1.99828,-0.38933 1.96904,0 1.7612,-0.10376 3.35826,1.67709 0.71421,0.79633 1.38315,0.81617 2.13645,0.0629 1.42788,-1.42791 -0.34587,-3.2383 -2.13645,-2.18059 -0.53553,0.31638 -0.56583,0.31225 -1.05041,-0.143 -0.43011,-0.40407 -0.71525,-0.47749 -2.06564,-0.53045 -0.86167,-0.0338 -1.83835,-0.18506 -2.17052,-0.33616 -0.39596,-0.18011 -1.26607,-0.27478 -2.52608,-0.27478 z m -33.36837,0.0348 c -0.32109,-0.0189 -0.73021,-0.005 -1.24993,0.0281 -4.27847,0.27357 -6.60036,0.51058 -7.06138,0.72062 -0.43944,0.20023 -0.57111,0.16594 -1.11443,-0.29124 -1.47247,-1.23899 -3.36501,0.93216 -2.00128,2.29588 0.84885,0.84883 2.06833,0.59312 2.75971,-0.57874 l 0.39869,-0.67607 h 2.02371 c 1.95117,0 2.02989,0.0166 2.19595,0.45333 0.23539,0.61914 0.52866,0.69667 2.62568,0.69667 2.2846,0 2.55904,-0.13278 2.55904,-1.23872 0,-1.00272 -0.17244,-1.35322 -1.13576,-1.4098 z m -10.27738,1.14551 c 0.20814,0.0668 0.39231,0.26545 0.39231,0.54468 0,0.34239 -0.11618,0.49571 -0.40691,0.53719 -0.44404,0.0634 -0.70521,-0.355 -0.5211,-0.8348 0.0954,-0.24862 0.32757,-0.31383 0.5357,-0.24707 z m 52.52568,0.73635 c 0.51143,0 0.77394,0.5073 0.45896,0.88683 -0.28081,0.33836 -0.45846,0.33215 -0.82021,-0.0296 -0.38675,-0.38675 -0.18866,-0.85726 0.36125,-0.85726 z m -22.51785,10.925 c -1.37782,0 -1.35435,-0.0976 -1.30536,5.42395 0.039,4.39868 0.01,4.93753 -0.28525,5.26372 -0.66722,0.7373 -0.22726,2.02415 0.82093,2.40033 0.7925,0.28441 1.91668,-0.65316 1.91668,-1.59847 0,-0.53405 -0.32596,-0.99605 -1.00737,-1.42702 -0.24225,-0.15321 -0.31575,-0.65006 -0.36646,-2.47707 l -0.0637,-2.28578 0.55888,-0.14974 c 0.8016,-0.21525 0.87237,-0.42592 0.87564,-2.59461 0.004,-2.51564 -0.0138,-2.55531 -1.14401,-2.55531 z m -6.56944,0.14038 c -0.13277,-0.051 -0.69342,-0.0493 -1.24586,0.004 l -1.00437,0.0966 v 2.36589 2.36589 l 0.62291,0.16096 0.62294,0.16135 0.0546,2.18208 0.0547,2.18208 -0.7734,0.70678 c -0.9382,0.85757 -1.03901,1.65294 -0.30286,2.38909 1.48826,1.48821 3.67846,-0.52053 2.34456,-2.15026 -0.43528,-0.53181 -0.44092,-0.59505 -0.30282,-3.41706 0.22875,-4.67462 0.206,-6.94107 -0.0704,-7.04712 z m 6.02774,10.99613 c 0.29941,-0.0528 0.63453,0.14482 0.63453,0.46195 0,0.24911 -0.14922,0.40196 -0.43199,0.44211 -0.48062,0.0682 -0.79833,-0.44078 -0.47617,-0.76292 0.0781,-0.0781 0.17385,-0.12355 0.27363,-0.14114 z m -6.92133,0.0311 c 0.32235,-0.0458 0.65586,0.22563 0.65586,0.64088 0,0.24852 -0.15774,0.38081 -0.50238,0.42077 -0.62237,0.0722 -0.89627,-0.46669 -0.45929,-0.90368 0.0921,-0.0921 0.1984,-0.14272 0.30581,-0.15797 z" /><path
               id="path390"
               style="fill:#152238;fill-opacity:1;stroke-width:0.191667"
               d="m 825.13165,386.66292 c -0.26944,-0.0253 -0.53141,0.26061 -0.9995,0.83742 -1.13468,1.39828 -4.3263,4.88884 -4.86317,5.31876 -0.26331,0.21083 -1.03441,0.88605 -1.71379,1.50039 -3.69691,3.34307 -7.13841,3.43043 -15.73647,0.40018 -2.94733,-1.03873 -2.81802,-1.0414 -2.97348,0.064 -0.0704,0.50073 -0.37743,2.07013 -0.68243,3.48744 -0.67802,3.15077 -0.67725,3.06181 -0.033,3.01725 0.45058,-0.0311 0.59769,0.10794 1.07813,1.01823 0.306,0.57979 0.90098,1.59323 1.32181,2.25209 0.88134,1.37968 0.91701,1.39036 2.12593,0.62366 1.22499,-0.77684 1.25901,-0.97095 0.45523,-2.59536 -0.57784,-1.16773 -0.78495,-1.41603 -1.26795,-1.52211 -1.33115,-0.29236 -2.09824,-1.89686 -1.35737,-2.83869 1.06774,-1.35744 3.22517,-0.39142 2.80761,1.25707 -0.0596,0.23524 -0.16085,0.64313 -0.22495,0.90668 -0.14619,0.60094 1.12437,3.45 1.53856,3.45 0.15337,0 0.7063,-0.26299 1.22863,-0.58436 2.08478,-1.28279 6.27605,-2.91325 9.84687,-3.83072 2.39006,-0.61411 2.45197,-0.64326 2.39581,-1.12641 -0.11669,-1.00406 -1.66921,-0.79474 -7.31813,0.9864 -2.12468,0.66993 -2.51216,0.85467 -2.77916,1.32558 -0.61501,1.08467 -1.82914,0.73062 -1.70892,-0.49826 0.0542,-0.55373 0.10274,-0.58576 0.91941,-0.6027 0.47437,-0.01 1.8975,-0.37149 3.1625,-0.80373 1.265,-0.43224 3.33497,-1.01523 4.59997,-1.29562 1.265,-0.28039 2.54531,-0.6397 2.84472,-0.79849 0.74018,-0.39258 0.99651,-0.0973 0.9598,1.10508 -0.0311,1.02162 0.48365,1.28254 1.47905,0.74982 0.64911,-0.34738 0.55145,-4.23803 -0.11865,-4.72616 -0.55394,-0.40351 -0.48669,-0.92473 0.14524,-1.12529 0.78648,-0.24962 0.94196,0.24259 0.97967,3.09848 l 0.0353,2.66387 1.34168,-0.0513 c 1.93491,-0.0738 1.82086,0.0778 1.82086,-2.41605 v -2.19219 l -0.67086,-0.80298 c -1.41166,-1.68965 -0.0552,-3.94111 1.79726,-2.98319 1.30605,0.67539 1.49298,1.97248 0.4301,2.98356 l -0.74382,0.70715 -0.0707,2.28166 -0.0711,2.28165 1.60745,0.14563 c 1.11294,0.1008 1.68774,0.0787 1.86877,-0.0715 0.33086,-0.27462 0.36033,-3.19315 0.0393,-3.89772 -0.18298,-0.40158 -0.15855,-0.60602 0.13925,-1.15899 0.37943,-0.70458 0.91933,-0.88268 1.1167,-0.36836 0.2055,0.53552 0.12532,0.66406 -0.26247,0.42189 -0.28292,-0.1767 -0.43371,-0.18135 -0.59667,-0.0183 -0.33547,0.33546 -0.005,0.68199 0.52482,0.54917 0.46079,-0.11565 0.46267,-0.11052 0.17071,0.45409 -0.53775,1.03991 -0.41503,4.19441 0.16882,4.34095 1.00994,0.25348 1.15541,0.0892 1.29638,-1.46221 0.0722,-0.7942 0.2614,-1.82138 0.4204,-2.28278 0.34199,-0.9927 0.21306,-1.33156 -0.72698,-1.91255 -0.67543,-0.41745 -3.23305,-3.2635 -4.70259,-5.23303 -0.498,-0.6674 -0.77497,-1.00381 -1.04446,-1.02908 z m -0.30696,3.76034 c -1.07807,0 -1.51132,1.07341 -0.75917,1.88073 0.72756,0.78094 1.90916,0.31861 1.90916,-0.74683 0,-0.6836 -0.45673,-1.1339 -1.14999,-1.1339 z m 25.8043,3.44327 c -0.15905,0.0275 -0.35239,0.0923 -0.58509,0.19204 -3.52539,1.51116 -8.43283,2.72223 -11.03583,2.72376 -2.22265,0.002 -3.22028,-0.30565 -5.15556,-1.58687 -1.75748,-1.16353 -1.66822,-1.17524 -1.8283,0.23996 -0.15195,1.34276 -0.0421,1.49684 1.06913,1.50152 2.79561,0.0118 10.68583,3.17317 14.83813,5.94503 3.88656,2.59452 5.69932,4.20385 10.95267,9.72448 0.81793,0.85954 1.7823,0.51786 1.7823,-0.63153 0,-0.77713 0.36125,-1.01051 1.06652,-0.68918 1.01542,0.46267 0.5033,1.42348 -1.13204,2.12443 -1.12955,0.48413 -2.61785,1.52863 -2.61785,1.83693 0,0.12392 0.34318,0.75609 0.76254,1.40494 0.79063,1.22321 1.13703,1.397 1.83022,0.91865 0.20796,-0.1435 0.99309,-0.57733 1.74448,-0.96432 1.26166,-0.64985 1.37479,-0.75903 1.48166,-1.4274 0.34418,-2.15232 3.37675,-2.20532 3.53576,-0.0618 0.10557,1.42362 -1.49628,2.28257 -2.87806,1.54307 -0.50659,-0.27112 -4.34356,1.45199 -4.35887,1.95747 -0.005,0.16888 0.51466,1.35917 1.15487,2.64515 1.7551,3.52552 2.8624,7.02399 3.5211,11.12229 0.33297,2.07187 0.41913,2.20964 1.26043,2.02486 l 0.61655,-0.13551 -0.13473,-1.36713 c -0.37126,-3.76736 -2.3817,-10.36908 -3.46985,-11.39407 -0.25633,-0.24145 -0.46502,-0.5002 -0.4631,-0.575 0.008,-0.36506 0.37337,-0.64204 0.77041,-0.58398 0.80045,0.11704 3.38661,8.54645 3.75399,12.2356 0.18034,1.81095 0.88051,2.25512 2.07462,1.31584 l 0.52037,-0.40954 0.51174,0.38184 c 0.6391,0.4767 0.73868,0.93278 0.30735,1.40942 -0.40134,0.44345 -0.72039,0.46847 -1.04147,0.0816 -0.40141,-0.48366 -3.94622,-0.40965 -4.21253,0.088 -0.24885,0.46494 -0.0368,2.49496 0.26205,2.51114 2.81644,0.15235 4.22956,-0.0458 4.94664,-0.69367 1.67934,-1.5172 3.88891,-0.0372 2.84806,1.90768 -0.63949,1.19492 -2.55329,1.12354 -3.19584,-0.11904 l -0.28115,-0.54356 -2.24383,0.0539 -2.2442,0.0539 -0.16101,1.87699 c -0.21858,2.54556 -0.3052,2.43551 1.91553,2.43551 1.66565,0 1.91166,-0.0456 2.32811,-0.43125 l 0.4657,-0.43125 0.50499,0.62254 c 0.62978,0.77609 0.38166,0.8725 2.21575,-0.86213 0.86385,-0.81697 2.14347,-1.91666 2.84395,-2.44374 0.70051,-0.52709 1.27773,-1.05106 1.28253,-1.16461 0.005,-0.11354 -0.89067,-0.95413 -1.99003,-1.868 -1.0994,-0.91386 -2.63032,-2.35473 -3.40211,-3.20181 -4.81736,-5.28733 -5.24774,-8.49947 -2.31759,-17.29456 0.58862,-1.76681 1.02708,-3.25546 0.97441,-3.30812 -0.0526,-0.0526 -1.16579,-0.30291 -2.47368,-0.55628 -11.54087,-2.23576 -13.68917,-4.18693 -15.77882,-14.33009 -0.27241,-1.3222 -0.49525,-2.65692 -0.49525,-2.96634 0,-0.66544 -0.1686,-0.92029 -0.64577,-0.83779 z m -2.34568,3.28828 c 0.32189,-0.0183 0.66427,0.14005 1.06019,0.47317 0.9168,0.77144 0.77214,1.96351 -0.30811,2.53884 -1.4257,0.75934 -2.75921,-1.15453 -1.68982,-2.42541 0.3143,-0.37353 0.61589,-0.56829 0.93774,-0.5866 z m -15.68637,0.32493 c -0.6796,-0.0447 -0.87222,0.16533 -0.87222,0.73373 0,0.5534 0.2416,0.66363 2.68333,1.22637 8.28108,1.9085 16.75631,7.31062 22.31424,14.22302 0.82987,1.0321 0.96567,1.07453 1.58386,0.49377 0.65713,-0.61732 0.6249,-0.67672 -1.71268,-3.1509 -7.1887,-7.60895 -14.15146,-11.64035 -23.14376,-13.40021 -0.34571,-0.0677 -0.6262,-0.11086 -0.85277,-0.12578 z m -30.67192,0.80186 c -0.9855,0 -1.65876,1.23984 -1.0201,1.87848 0.38123,0.38124 1.25104,0.27314 1.57975,-0.19615 0.5633,-0.80421 0.27126,-1.68233 -0.55965,-1.68233 z m 23.35789,3.80264 c -8.98347,-0.0697 -18.06477,3.14471 -25.25546,9.99625 -17.13104,16.32299 -14.59221,42.97025 5.34345,56.08387 5.20405,3.42318 11.0198,5.35601 17.44128,5.79679 20.01482,1.37386 38.01196,-14.67587 38.76093,-34.56702 0.19472,-5.17172 -1.37161,-12.3294 -3.73267,-17.05835 -6.50668,-13.0322 -19.42782,-20.14965 -32.55753,-20.25154 z m -27.74489,0.26129 c -0.31874,-0.016 -0.42012,0.28726 -0.98006,1.67597 -1.79742,4.45787 -5.3024,6.54107 -13.13328,7.8063 -1.73938,0.28103 -3.22464,0.56305 -3.301,0.62666 -0.0763,0.0636 0.32806,1.53687 0.8988,3.27368 3.3384,10.15871 2.31202,13.87287 -5.67326,20.53343 -2.29109,1.91101 -2.36503,2.04653 -1.45996,2.67959 1.26971,0.88812 3.72736,3.03142 4.94216,4.30988 4.67083,4.91558 5.09729,8.00372 2.28128,16.5279 -1.25862,3.80991 -1.27857,4.05229 -0.32942,4.05382 0.34592,3.8e-4 1.6639,0.17871 2.9289,0.39606 1.265,0.21736 2.60188,0.44154 2.97084,0.49789 1.97929,0.30227 5.8523,2.15089 7.32452,3.49642 2.07349,1.89504 4.07246,7.17635 4.7456,12.53733 0.22091,1.75927 0.21697,1.75777 2.30937,0.97031 7.1513,-2.69136 12.11195,-2.86141 15.63807,-0.53532 1.41477,0.9333 5.76531,5.15939 7.16577,6.96066 0.57979,0.7457 1.10714,1.35737 1.1717,1.35737 0.0646,0 0.58118,-0.62381 1.14777,-1.38807 2.95293,-3.98299 7.29451,-7.58554 10.01462,-8.30981 2.71418,-0.72268 7.80387,0.0528 12.94389,1.9717 2.05467,0.76706 2.02456,0.78026 2.19181,-0.96208 0.3039,-3.16628 1.74191,-8.29748 2.94503,-10.50798 1.69062,-3.10628 6.66975,-5.28317 15.05817,-6.58331 0.86013,-0.13331 0.87402,-0.2477 0.23508,-1.94512 -0.51005,-1.35514 -1.49559,-4.6159 -1.93161,-6.39051 -0.94012,-3.82595 -0.25145,-7.63244 1.81069,-10.00635 0.96747,-1.11374 1.13151,-1.57106 0.50691,-1.4143 -0.34322,0.0861 -0.62963,0.0365 -0.8352,-0.14487 -0.21429,-0.18901 -0.91603,-0.29769 -2.22737,-0.34477 l -1.9148,-0.0689 -0.34031,1.62916 c -0.68175,3.26442 -2.26047,8.162 -3.02735,9.39168 -1.13733,1.82381 -1.55513,3.06666 -1.03092,3.06666 0.29887,0 1.29864,0.52403 2.95696,1.54981 0.78633,0.48639 0.9313,0.51514 1.64079,0.32456 1.8426,-0.49496 3.11765,1.16666 1.99263,2.59686 -1.04806,1.33242 -3.05842,0.48504 -3.05842,-1.28926 0,-0.56756 -0.64551,-1.1037 -2.67136,-2.21727 -0.7736,-0.42522 -1.43583,-0.77303 -1.47154,-0.77303 -0.0357,0 -0.65886,0.88406 -1.38473,1.96459 -2.43854,3.62993 -5.11796,6.59864 -8.12863,9.00683 -0.92239,0.73782 -1.67707,1.36367 -1.67707,1.39071 0,0.0271 0.37421,0.72812 0.83144,1.55805 0.74137,1.34567 0.91687,1.53664 1.6213,1.7643 0.9235,0.29847 1.16733,0.79842 0.72134,1.47905 -0.56867,0.86792 -1.83244,0.43572 -1.83244,-0.62665 0,-0.55327 -1.64148,-3.6952 -1.93049,-3.6952 -0.21333,0 -1.64888,0.86929 -2.13342,1.29187 -0.30444,0.26549 -0.27379,0.39095 0.4522,1.84442 0.96375,1.92939 1.22438,2.23038 1.9313,2.23038 1.53448,0 2.26346,2.15877 1.06836,3.16437 -1.49149,1.25501 -3.58509,-0.45276 -2.7365,-2.23225 0.30961,-0.64923 0.30558,-0.66583 -0.56376,-2.45198 -0.48143,-0.98915 -0.91491,-1.83808 -0.96321,-1.88635 -0.0483,-0.0483 -1.06249,0.39194 -2.25392,0.9778 -5.13215,2.52356 -10.64386,4.03317 -15.54566,4.25822 -2.17504,0.0999 -2.04995,-0.0574 -2.04995,2.57178 v 2.27043 l 0.67083,0.80298 c 1.04515,1.25093 0.85066,2.5161 -0.47131,3.06367 -1.75733,0.72793 -2.99444,-1.53574 -1.6516,-3.02212 l 0.65586,-0.72586 0.0471,-2.34118 c 0.0257,-1.28748 -0.005,-2.39259 -0.0681,-2.45573 -0.0632,-0.0631 -1.10795,-0.15205 -2.32212,-0.19766 l -2.20753,-0.0827 -0.10592,0.67645 c -0.0581,0.37218 -0.15433,0.98887 -0.21413,1.37012 l -0.10856,0.69292 -0.37809,-0.40542 c -0.25307,-0.27163 -0.61309,-0.40692 -1.08938,-0.40692 -2.83923,-0.005 -10.33893,-2.82922 -15.29102,-5.75749 -1.32427,-0.78306 -2.13162,-1.14139 -2.57253,-1.14139 -0.80211,0 -1.34354,-0.47103 -1.34354,-1.16872 0,-0.41557 -0.24438,-0.7387 -1.1006,-1.45547 -1.74197,-1.45828 -4.79494,-4.46995 -5.63732,-5.56095 -1.65845,-2.14793 -0.37821,-1.18383 3.26246,2.45685 3.34018,3.34017 3.88631,3.81162 4.41508,3.81162 0.44861,0 0.64619,0.11063 0.77003,0.43125 1.12559,2.91387 18.15491,9.58333 18.72008,7.33163 0.18725,-0.74607 -0.0192,-1.00552 -0.91418,-1.14925 -9.19837,-1.47735 -18.07623,-6.64063 -24.40793,-14.19532 -1.01108,-1.20636 -1.88606,-2.19331 -1.94472,-2.19331 -0.11764,0 -2.06565,1.37171 -2.95064,2.07763 -0.30908,0.24656 -0.56227,0.61498 -0.56227,0.81871 0,0.42225 -0.78221,0.85411 -1.23347,0.68094 -0.73782,-0.28313 -0.2981,-1.55057 0.60606,-1.74672 0.48952,-0.10619 1.74559,-0.90517 3.66937,-2.33481 0.19505,-0.14495 -0.22493,-1.02904 -0.78351,-1.64938 l -0.62928,-0.69891 -2.0125,1.09347 c -2.00553,1.08969 -2.01267,1.09663 -2.12217,1.91442 -0.30711,2.29367 -3.43617,2.22171 -3.43617,-0.079 0,-1.11597 0.73913,-1.68713 1.97919,-1.52996 0.54558,0.0691 1.13973,0.12833 1.32034,0.13139 0.45563,0.008 3.96788,-1.98138 3.9767,-2.25208 0.004,-0.12115 -0.54342,-1.35152 -1.21626,-2.73387 -1.75149,-3.5984 -3.30953,-8.68168 -3.48144,-11.35775 -0.0665,-1.03493 -0.13625,-1.07591 -1.66361,-0.97331 -1.22716,0.0824 -1.45578,0.15985 -1.9103,0.64575 -0.60848,0.65047 -0.9733,0.69144 -1.49629,0.16846 -0.75165,-0.75165 -0.2227,-1.89328 0.74908,-1.61682 0.27326,0.0777 1.31614,0.14979 2.31759,0.16023 l 1.82084,0.0191 -0.0693,-1.4375 c -0.0895,-1.85627 0.10139,-1.725 -2.50664,-1.725 h -2.26594 l -0.50575,0.66297 c -0.86505,1.13413 -2.32289,1.15273 -3.00227,0.0386 -0.53375,-0.87538 -0.4638,-1.41358 0.28075,-2.15812 0.90375,-0.90376 1.55925,-0.87465 2.70954,0.12091 l 0.89282,0.77303 2.13754,-0.0543 2.13753,-0.0539 0.17221,-1.60034 c 0.22686,-2.1096 -0.0759,-2.26559 -3.34705,-1.72538 -1.87159,0.30909 -2.77615,-0.52966 -1.67634,-1.55429 0.5428,-0.50569 0.59436,-0.49861 1.38098,0.19204 0.63988,0.56183 0.72118,0.58094 2.24309,0.52708 l 1.57937,-0.0558 0.32382,-1.91666 c 0.63168,-3.73673 1.93195,-7.81431 3.46722,-10.87372 0.51481,-1.0259 0.93587,-1.98675 0.93587,-2.13529 0,-0.14854 -0.89697,-0.7934 -1.99341,-1.43301 l -1.99378,-1.16273 -0.77266,0.3036 c -1.86542,0.73276 -3.34484,-1.25255 -1.96307,-2.6343 1.12198,-1.12198 2.5581,-0.60167 2.97083,1.07663 l 0.23359,0.95047 1.90318,0.99914 c 2.32999,1.22303 2.02207,1.24183 2.98396,-0.18455 2.45593,-3.64197 4.4008,-5.83247 7.46637,-8.40938 1.14953,-0.9663 2.08998,-1.82807 2.08998,-1.91517 0,-0.56176 -2.38309,-3.72856 -2.91204,-3.86965 -0.17963,-0.0479 -0.31004,-0.0886 -0.41628,-0.094 z m 30.41625,0.50874 0.9748,0.12429 c 4.18046,0.53317 7.1457,1.41404 7.32903,2.17684 0.0668,0.27806 0.32504,0.9122 0.5735,1.40942 0.62606,1.25285 0.75902,0.84181 -2.42055,7.4795 -3.55302,7.4173 -3.88446,8.63359 -2.39958,8.80694 0.92969,0.10853 1.16726,-0.11062 1.59848,-1.47381 0.92362,-2.91977 4.47637,-13.03798 4.65241,-13.25009 0.10849,-0.13076 0.47177,-0.29809 0.80708,-0.37173 0.33528,-0.0736 0.96863,-0.30822 1.40759,-0.52147 1.01888,-0.49501 1.25488,-0.40312 4.46633,1.73923 3.42278,2.28332 3.26557,2.08768 3.26212,4.05195 -0.004,1.98835 0.26059,1.58951 -2.8825,4.34769 -5.26136,4.617 -7.0816,6.27234 -7.0816,6.44031 0,0.2774 1.03426,1.49327 1.27018,1.49328 0.11873,0 0.85185,-0.7176 1.6292,-1.59473 0.77735,-0.87713 2.82565,-3.1191 4.55171,-4.98222 l 3.13814,-3.38748 1.75983,0.0603 c 2.19518,0.0754 1.90091,-0.14936 4.016,3.06704 2.45132,3.72763 2.30808,3.34351 1.73661,4.66327 -0.9209,2.12683 -0.66557,1.93225 -4.10999,3.13368 -1.73937,0.60671 -4.48861,1.59266 -6.10937,2.19106 -2.16204,0.79825 -3.33608,1.1235 -4.40832,1.22075 l -1.46148,0.13253 v 0.76666 0.76667 l 1.88637,0.055 1.88634,0.055 1.65947,-0.8479 c 4.37598,-2.23564 9.68065,-4.56617 10.16883,-4.46749 3.16481,0.63976 3.61133,1.33949 4.52778,7.09467 l 0.30098,1.88897 -1.01001,1.08187 c -0.55547,0.59489 -1.09847,1.1448 -1.20654,1.22224 -0.10802,0.0774 -3.05747,0.14222 -6.55444,0.14375 l -6.35834,0.003 -0.57726,-0.4859 c -0.55086,-0.46351 -0.67258,-0.48328 -2.65037,-0.43125 l -2.07281,0.0547 v 1.05417 1.05416 l 2.39585,-0.0502 c 1.31771,-0.0276 5.37978,-0.0956 9.02666,-0.15086 l 6.63086,-0.10033 1.17957,1.16498 c 1.40851,1.39116 1.39769,1.30257 0.62556,5.11174 -0.79585,3.92607 -1.38956,4.68551 -4.04596,5.175 -0.60001,0.11056 -10.44726,-4.63334 -11.13539,-5.36442 -0.42677,-0.45337 -0.60054,-0.49242 -2.38611,-0.5372 -2.20792,-0.0554 -2.38687,0.009 -2.38687,0.85764 0,0.77971 0.29515,1.08112 1.05793,1.08112 1.05324,0 13.61517,4.46721 14.20915,5.05296 0.29611,0.29202 1.21628,2.64414 1.21628,3.10897 0,0.20312 -0.92719,1.73866 -2.06042,3.41257 l -2.06042,3.04383 -1.88783,0.0341 -1.88787,0.0341 -4.49629,-5.04323 c -2.47295,-2.77374 -4.61029,-5.04323 -4.74973,-5.04323 -0.28921,0 -1.31756,1.27067 -1.22338,1.51162 0.0341,0.0873 0.54274,0.5807 1.13051,1.09647 0.58777,0.51577 2.79795,2.55958 4.9115,4.54197 l 3.84269,3.60461 -0.0238,1.58912 c -0.0161,1.08077 -0.11313,1.69662 -0.30321,1.92565 -0.34049,0.41025 -3.4977,2.6551 -5.11435,3.63643 l -1.17735,0.71463 -0.74045,-0.37772 c -0.40728,-0.20778 -1.09671,-0.47355 -1.53184,-0.59072 -1.03564,-0.27886 -1.01297,-0.24191 -2.13419,-3.47808 -1.64781,-4.75607 -3.89758,-10.79846 -4.19346,-11.26267 -0.61823,-0.96998 -1.30409,-0.50589 -1.36784,0.92539 -0.0537,1.20606 -0.007,1.35155 1.36412,4.21667 0.78084,1.63214 2.12096,4.44867 2.97829,6.25912 l 1.55881,3.29203 -0.8146,1.6913 -0.81456,1.69169 -1.72503,0.43462 c -0.94871,0.23893 -2.7411,0.57767 -3.98305,0.75282 l -2.25809,0.3182 -1.17547,-1.17883 -1.17508,-1.17883 0.0412,-6.27821 c 0.0345,-5.23741 0.0882,-6.32996 0.3253,-6.59191 0.22361,-0.24701 0.27267,-0.77936 0.22986,-2.49579 l -0.0547,-2.18208 h -1.05413 -1.05417 l -0.0543,2.18208 c -0.0431,1.7271 0.005,2.24773 0.2329,2.49916 0.23699,0.2619 0.3108,1.41732 0.42036,6.5833 l 0.13288,6.26511 -1.22821,1.14551 v 0 c -1.36113,1.26926 -1.28725,1.25211 -3.81575,0.88159 -3.73712,-0.54763 -5.6431,-1.15424 -5.83644,-1.8579 -0.0679,-0.2468 -0.3441,-0.93106 -0.61397,-1.52023 l -0.49037,-1.07101 0.62214,-1.42066 c 0.34222,-0.78125 1.63131,-3.62203 2.8649,-6.31302 2.74846,-5.99556 3.07718,-7.47367 1.66023,-7.46677 -0.96651,0.005 -0.94886,-0.033 -3.47023,7.47388 -1.3265,3.94953 -2.51769,7.27155 -2.647,7.38217 -0.43656,0.37348 -2.97507,1.10077 -3.42977,0.98267 -0.5084,-0.13205 -4.45178,-2.70167 -5.6396,-3.67499 l -0.78725,-0.645 0.0453,-1.75757 c 0.0402,-1.56718 0.0942,-1.8041 0.49823,-2.18732 0.5562,-0.52747 4.07086,-3.7237 7.05314,-6.41373 2.47384,-2.23141 2.53161,-2.33823 1.75161,-3.24299 -0.70285,-0.81519 -0.56974,-0.90667 -3.57431,2.45836 -1.36247,1.52592 -3.34755,3.72512 -4.41096,4.88712 l -1.93349,2.11283 -1.88375,3.5e-4 -1.88372,3.5e-4 -2.09373,-3.07939 -2.09375,-3.07977 0.4964,-1.1792 c 0.273,-0.64858 0.49639,-1.29778 0.49639,-1.44275 0,-0.48279 0.66557,-0.87566 2.65825,-1.56927 1.08625,-0.3781 3.62766,-1.33674 5.64782,-2.13004 3.98485,-1.56486 5.37265,-1.99042 6.48896,-1.99042 0.77735,0 1.02892,-0.38726 0.88983,-1.37012 -0.0623,-0.44029 -0.11616,-0.45194 -2.30789,-0.50462 l -2.24348,-0.0539 -0.34027,0.51922 c -0.46375,0.70776 -10.2744,5.50709 -10.98489,5.37378 -0.69666,-0.13071 -2.68088,-1.00307 -2.97419,-1.3076 -0.24883,-0.25834 -1.0275,-3.22968 -1.42142,-5.4232 -0.36195,-2.01558 -0.31516,-2.18848 0.95647,-3.51551 l 1.15261,-1.20279 6.46202,0.0685 c 4.55391,0.0482 6.74799,0.14357 7.43082,0.32269 0.72234,0.18949 1.38077,0.20979 2.5875,0.0801 l 1.61869,-0.17407 0.0595,-0.82881 c 0.0926,-1.28756 -0.0719,-1.37536 -2.5793,-1.37536 -2.15475,0 -2.18812,0.007 -2.36777,0.47917 l -0.18225,0.47916 -6.56912,-0.006 -6.56945,-0.006 -1.13576,-1.26043 -1.13615,-1.26044 0.23997,-1.46482 c 0.32102,-1.96055 1.14707,-5.56839 1.37049,-5.98585 0.0987,-0.18447 0.50343,-0.439 0.89954,-0.56564 0.39612,-0.12664 0.98941,-0.3923 1.3181,-0.59035 0.3287,-0.19805 0.7951,-0.36012 1.03694,-0.36012 0.43273,0 9.06435,3.91835 10.73448,4.8729 1.3113,0.74957 4.71329,0.74973 4.90134,3.5e-4 0.25725,-1.02498 -0.16265,-1.42307 -1.50188,-1.42402 -0.94357,-7.7e-4 -1.77908,-0.20252 -3.88538,-0.93812 -1.47583,-0.51541 -4.23584,-1.47545 -6.13334,-2.13342 -3.48524,-1.20851 -4.11925,-1.52905 -4.1227,-2.08437 -0.002,-0.16814 -0.21797,-0.77032 -0.48218,-1.33793 l -0.48066,-1.03208 0.51474,-0.88459 c 0.57611,-0.9907 2.91193,-4.46322 3.49006,-5.18848 0.34602,-0.43405 0.51227,-0.47272 2.13192,-0.49713 l 1.75605,-0.0266 1.37575,1.54045 c 0.75652,0.8473 1.93597,2.14961 2.62118,2.89409 0.68521,0.74449 2.10327,2.32346 3.15126,3.50878 2.18149,2.46735 1.95781,2.34364 2.753,1.52323 0.78894,-0.81399 0.7823,-0.85074 -0.31073,-1.79202 -1.38208,-1.19021 -8.53323,-7.74284 -8.77137,-8.03727 -0.20431,-0.25274 -0.19921,-3.0455 0.007,-3.69445 0.10895,-0.34327 5.75181,-4.20345 6.38788,-4.36978 0.20907,-0.0547 0.66353,0.0471 1.00963,0.2261 0.34605,0.17897 0.97986,0.4269 1.40866,0.55105 1.00414,0.29072 0.87237,-3.5e-4 3.47998,7.68576 2.78587,8.21174 2.4082,7.37917 3.34514,7.37917 1.59387,0 1.27789,-1.24701 -2.20827,-8.70923 -2.96705,-6.35112 -2.97023,-6.35991 -2.4097,-7.27211 0.20201,-0.32869 0.42834,-0.92614 0.50277,-1.32744 0.20972,-1.13099 1.67899,-1.66237 6.45117,-2.3337 l 1.97468,-0.27814 1.19791,1.18594 1.1979,1.18631 v 6.4317 c 0,6.28524 -0.009,6.4393 -0.40018,6.77422 -0.37379,0.32007 -0.39121,0.4655 -0.2665,2.19893 0.15748,2.18889 0.15406,2.18372 1.35887,2.10721 l 0.93698,-0.0595 0.0547,-1.96122 c 0.0401,-1.43867 -0.0176,-2.07696 -0.21709,-2.39583 -0.21382,-0.34198 -0.29511,-1.77135 -0.38111,-6.70272 l -0.1093,-6.26848 1.2683,-1.26829 z m -29.94195,3.28567 c 0.44009,0 0.0364,0.53032 -1.56366,2.05293 -2.63028,2.50305 -5.16564,5.62484 -5.16564,6.36094 0,0.52324 -0.064,0.59447 -0.53645,0.59447 -1.13949,0 -1.41185,-1.16279 -0.37397,-1.59698 0.3426,-0.14332 1.05417,-0.76847 1.58124,-1.38921 2.63657,-3.10504 5.57124,-6.02215 6.05848,-6.02215 z m 31.40452,4.23052 c -0.41258,-0.0294 -0.83417,0.11776 -1.1279,0.49114 -0.52179,0.66337 -0.50123,1.06737 0.0906,1.77067 l 0.48776,0.5795 -0.1984,2.26219 c -0.10914,1.24407 -0.19837,2.32876 -0.20029,2.41044 -0.004,0.0817 -0.21785,0.23035 -0.48143,0.33055 -0.47054,0.17888 -0.47917,0.21979 -0.47917,2.26331 0,1.14462 0.0578,2.13876 0.12805,2.20903 0.0703,0.0703 0.54465,0.12766 1.05416,0.12766 h 0.92616 v -2.14128 c 0,-1.62089 -0.0688,-2.21708 -0.28337,-2.45424 -0.2309,-0.25509 -0.24889,-0.52475 -0.0969,-1.45247 0.10257,-0.62662 0.18755,-1.63213 0.18755,-2.23411 0,-0.76144 0.0929,-1.16974 0.30244,-1.34167 0.84697,-0.69488 1.04031,-0.96119 1.04031,-1.43263 0,-0.7995 -0.66188,-1.33904 -1.34954,-1.38809 z m -7.96015,0.36948 c -1.42436,0 -1.91553,1.48892 -0.82093,2.48867 0.57561,0.52577 0.61044,0.64237 0.77413,2.59611 0.1834,2.18937 0.10158,2.50806 -0.67198,2.6182 -0.39224,0.0559 -0.42048,0.17401 -0.47242,1.96271 -0.0303,1.04667 -0.01,2.02154 0.0457,2.16636 0.0722,0.1881 0.38925,0.24658 1.10956,0.20515 l 1.0081,-0.058 0.0547,-2.18097 c 0.0303,-1.20936 -0.0782,-3.19841 -0.24294,-4.46486 l -0.29684,-2.2839 0.48212,-0.63228 c 0.84955,-1.11377 0.32692,-2.41717 -0.96915,-2.41717 z m 7.71233,0.3021 c 0.63868,-0.24508 1.10768,0.68621 0.60085,1.19305 -0.30731,0.3073 -0.63142,0.29015 -0.9123,-0.0483 -0.28104,-0.33863 -0.10519,-0.98487 0.31145,-1.14476 z m -7.68652,0.53045 c 0.29504,0.0261 0.58655,0.19571 0.62778,0.48741 0.0357,0.25162 -0.0507,0.53054 -0.19165,0.61992 -0.56755,0.35972 -1.21079,-0.0749 -1.08412,-0.73261 0.0545,-0.28321 0.353,-0.40082 0.64799,-0.37472 z m -36.79962,2.20492 c -0.82829,-0.089 -1.7367,0.80823 -1.16273,1.6842 0.37434,0.57133 1.28484,0.60635 1.8212,0.07 0.46132,-0.46133 0.47932,-0.73601 0.085,-1.29899 -0.2004,-0.28613 -0.46736,-0.42554 -0.74345,-0.45521 z m 80.99568,0.40841 c -0.27401,-0.009 -0.56544,0.0836 -0.82802,0.32119 -0.47656,0.43128 -0.44143,1.13103 0.0752,1.49291 0.57335,0.40157 1.03016,0.37552 1.49068,-0.085 0.74835,-0.74838 0.0842,-1.70072 -0.73788,-1.72912 z m -78.46284,5.96301 c 0.16757,0.0285 0.31682,0.16872 0.40953,0.41403 0.19655,0.52009 0.1117,0.69184 -0.44547,0.90368 -0.47662,0.18121 -2.45813,5.80171 -2.79638,7.93171 -0.0979,0.61635 -0.22795,1.27772 -0.289,1.47007 -0.0701,0.22077 0.0468,0.49685 0.31669,0.74833 l 0.42751,0.3983 h -0.61693 c -0.84667,0 -0.88847,-0.24328 -0.43424,-2.52648 0.4056,-2.03887 2.50579,-8.59939 2.90795,-9.08396 0.1669,-0.20112 0.35276,-0.2842 0.52034,-0.25568 z m 27.15304,4.10362 -0.95159,0.48965 c -0.67562,0.34772 -1.11858,0.75987 -1.52808,1.42215 l -0.57692,0.93288 -0.0524,10.6143 c -0.0498,10.03728 -0.033,10.65883 0.30769,11.42925 0.56426,1.27561 1.48244,2.19558 2.49579,2.50065 0.72222,0.21744 2.84705,0.26162 11.24057,0.23285 11.70716,-0.0401 11.11459,0.0352 12.54896,-1.59436 1.1694,-1.32851 1.18912,-1.55573 1.12041,-12.91355 l -0.061,-10.07785 -0.57987,-0.93775 c -0.35944,-0.58121 -0.93697,-1.15855 -1.51838,-1.51798 l -0.9385,-0.58024 H 825.1219 Z m 10.86398,2.33294 c 10.24732,0.003 9.95025,-0.0369 10.88273,1.47194 0.52176,0.84426 0.6584,18.81448 0.1505,19.79109 -0.48036,0.92361 -1.2093,1.46531 -2.1892,1.62655 -0.9707,0.15972 -5.81656,0.15557 -13.88762,-0.012 l -4.92347,-0.10219 -0.61056,-0.575 c -1.14715,-1.07984 -1.13906,-1.00663 -1.13392,-10.29573 0.005,-8.68723 0.0796,-9.73368 0.76558,-10.69703 0.86033,-1.20816 0.88553,-1.21085 10.94596,-1.20765 z m -8.83241,1.59623 c -1.48489,0 -2.11156,2.2582 -0.82093,2.95848 0.77417,0.42005 1.16142,0.3633 1.78529,-0.26055 1.03572,-1.03572 0.44158,-2.69793 -0.96436,-2.69793 z m 6.69603,1.56515 c -0.15532,0.034 -0.31598,0.44612 -0.38001,1.21402 -0.0825,0.99027 -0.14907,1.15 -0.47917,1.15 -0.32515,0 -0.39788,-0.15952 -0.47917,-1.0523 -0.0702,-0.77056 -0.17941,-1.06849 -0.40801,-1.11182 -0.32093,-0.0608 -0.68873,1.1143 -0.46309,1.47943 0.20469,0.33113 -0.13304,0.78052 -0.58659,0.78052 -0.58278,0 -1.22564,0.63404 -1.22564,1.20915 0,0.72594 -0.40624,1.06806 -1.34164,1.12978 -1.16937,0.0772 -1.21759,0.60625 -0.0629,0.6903 1.59426,0.11605 1.65644,1.18744 0.0689,1.18744 -0.83658,0 -0.96432,0.0508 -0.96432,0.38333 0,0.33254 0.12774,0.38334 0.96432,0.38334 0.68398,0 0.99697,0.0845 1.07588,0.29012 0.18026,0.4697 -0.30697,0.85988 -1.07327,0.85988 -0.39117,0 -0.76803,0.0568 -0.83743,0.12615 -0.26998,0.27001 0.33743,0.64051 1.05007,0.64051 0.49194,0 0.78759,0.0997 0.86063,0.29013 0.162,0.42215 -0.29937,0.89058 -0.73934,0.75094 -0.52965,-0.1681 -1.30086,0.067 -1.30086,0.39643 0,0.28382 0.3942,0.42724 1.43751,0.52259 1.06613,0.0975 0.77202,0.79938 -0.38335,0.91492 -1.32822,0.13282 -1.31817,0.60987 0.0173,0.82244 0.85802,0.13657 1.01292,0.23444 1.28817,0.81159 0.21033,0.44112 0.48757,0.69407 0.84563,0.77266 0.9855,0.21627 1.01151,0.24508 1.01151,1.10133 0,0.46011 0.0593,0.89559 0.13173,0.96807 0.3115,0.31148 0.54558,-0.0723 0.63492,-1.04107 0.0811,-0.87956 0.15475,-1.03919 0.47917,-1.03919 0.3278,0 0.39152,0.14732 0.44135,1.01636 0.0967,1.68669 0.82139,1.67083 0.99163,-0.0217 0.15099,-1.50072 0.82477,-1.45912 0.96283,0.0595 0.0813,0.89445 0.15391,1.05417 0.47917,1.05417 0.32527,0 0.39789,-0.15972 0.47917,-1.05417 0.0813,-0.89444 0.15391,-1.05416 0.47917,-1.05416 0.3278,0 0.39152,0.14732 0.44135,1.01635 0.0968,1.6867 0.82143,1.67084 0.99168,-0.0217 0.15099,-1.50073 0.82476,-1.45913 0.96283,0.0595 0.10791,1.18699 0.62709,1.531 0.72326,0.47917 0.1142,-1.24942 0.21674,-1.43751 0.78387,-1.43751 0.62656,0 1.11282,-0.4635 1.20654,-1.14999 0.0577,-0.42278 0.17826,-0.49045 1.02382,-0.575 1.40702,-0.14068 1.40813,-0.81747 0,-0.95834 -0.7401,-0.0741 -0.97238,-0.17753 -1.02532,-0.45633 -0.0872,-0.45885 0.32017,-0.72761 0.8962,-0.59185 0.59314,0.1398 1.18141,-0.0604 1.18141,-0.40205 0,-0.19651 -0.23838,-0.27477 -0.83888,-0.27477 -1.66043,0 -1.7352,-1.09259 -0.0812,-1.18744 1.45427,-0.0834 1.42734,-0.59599 -0.0384,-0.72923 -1.82265,-0.16569 -1.52581,-1.13967 0.34963,-1.14738 1.10684,-0.005 0.73109,-0.65128 -0.44695,-0.76929 -1.36934,-0.13716 -1.40717,-0.81064 -0.0543,-0.96619 1.5496,-0.17817 1.58942,-1.00274 0.0445,-0.92277 -0.93233,0.0483 -1.22622,-0.16678 -1.23159,-0.90144 -0.004,-0.57597 -0.40249,-1.02925 -1.0572,-1.20315 -0.53184,-0.14128 -0.58213,-0.23054 -0.67082,-1.19418 -0.12701,-1.38036 -0.64213,-1.4839 -0.72848,-0.14637 -0.11209,1.73583 -1.1882,1.68497 -1.1882,-0.0562 0,-0.80709 -0.0524,-0.93475 -0.38334,-0.93475 -0.33597,0 -0.38331,0.1277 -0.38331,1.03358 0,0.742 -0.0811,1.06482 -0.28752,1.14401 -0.62337,0.2392 -0.86251,-0.078 -0.86251,-1.14401 0,-0.90588 -0.0474,-1.03358 -0.38335,-1.03358 -0.33711,0 -0.3833,0.12775 -0.3833,1.06016 0,1.80524 -1.08275,1.65445 -1.1882,-0.16547 -0.0431,-0.74445 -0.19323,-1.08852 -0.34851,-1.05454 z m -24.29565,2.53959 c -0.62507,-0.0389 -1.13207,0.28363 -1.30724,0.98154 -0.35214,1.40304 1.17217,2.48978 2.27531,1.62205 0.58977,-0.46393 0.96617,-0.48544 1.30723,-0.0745 0.14102,0.16992 0.40452,0.36398 0.58547,0.43125 0.35922,0.13353 7.77007,0.0664 8.17543,-0.0741 0.17305,-0.06 0.23186,-0.39603 0.19166,-1.09497 l -0.058,-1.0085 -2.33594,-0.0535 -2.33593,-0.0539 -0.0599,0.72474 -0.0599,0.72437 -1.73063,0.0546 -1.73063,0.0547 -0.90215,-1.04519 c -0.6467,-0.74908 -1.38969,-1.14963 -2.01474,-1.18855 z m 44.90657,0.72286 c -0.34936,-0.0152 -0.7973,-0.01 -1.37272,0.005 l -2.08067,0.0547 -0.0595,0.93737 c -0.0326,0.51543 0.0123,1.0085 0.0992,1.09572 0.0872,0.0872 2.34061,0.19753 5.00768,0.24557 3.93149,0.0708 4.92861,0.14299 5.26784,0.37996 1.38016,0.96419 2.88461,-0.73219 1.83393,-2.0679 -0.62156,-0.7902 -1.64017,-0.64401 -2.26557,0.32531 l -0.46755,0.72436 -2.31199,-0.0535 -2.31234,-0.0535 -0.0588,-0.60869 c -0.0686,-0.7081 -0.23143,-0.93889 -1.27954,-0.98454 z m -44.67748,0.0883 c 0.43856,0.0968 0.81184,0.59242 0.56863,0.98042 -0.42185,0.67301 -1.41541,0.41371 -1.41541,-0.36948 0,-0.18604 0.18325,-0.43621 0.40692,-0.55591 0.14023,-0.0751 0.29368,-0.0873 0.43986,-0.055 z m 52.40105,0.76854 c 0.35953,0.035 0.64497,0.38959 0.58099,0.84303 -0.0659,0.46682 -0.855,0.76556 -1.17547,0.44511 -0.2678,-0.26781 -0.13035,-1.02064 0.2205,-1.20841 0.12606,-0.0675 0.25414,-0.0914 0.37398,-0.0797 z m -26.46089,0.35301 c 2.63177,0 3.51205,0.0618 3.75472,0.26317 0.45002,0.37347 0.47944,7.31753 0.0326,7.68838 -0.35361,0.29347 -6.51351,0.4704 -7.13024,0.20477 -0.72718,-0.31319 -0.82734,-0.80863 -0.82734,-4.09763 0,-4.33421 -0.28291,-4.05869 4.17029,-4.05869 z m -46.72029,2.77917 c -0.92563,0 -1.46136,1.25478 -0.83253,1.94961 0.60867,0.67259 1.98254,0.0341 1.98254,-0.92127 0,-0.39101 -0.71273,-1.02834 -1.15001,-1.02834 z m 93.81006,0.28189 c -0.23075,-0.0404 -0.48589,0.003 -0.7337,0.16508 -0.59844,0.39211 -0.6938,1.33852 -0.16584,1.64602 0.52367,0.30501 1.10753,0.24123 1.47116,-0.1606 0.59444,-0.65681 0.12064,-1.52933 -0.57162,-1.6505 z m -29.39837,2.97457 c -1.06832,-0.0129 -2.10216,0.0612 -2.27306,0.2321 -0.34993,0.34988 -0.2953,1.81203 0.073,1.95335 0.95017,0.36462 3.93065,0.11756 4.37576,-0.36274 0.40398,-0.43591 0.5857,-0.47917 2.01289,-0.47917 1.82791,0 2.47418,0.26033 3.07975,1.24022 0.22921,0.37086 0.56084,0.75814 0.73711,0.861 1.33455,0.77874 2.84345,-1.01568 1.76282,-2.09635 -0.61033,-0.61031 -1.29631,-0.68904 -1.92904,-0.22124 -0.68766,0.50841 -0.67968,0.50889 -1.36899,-0.0711 -0.49697,-0.4182 -0.7566,-0.47998 -2.04021,-0.4859 -0.91192,-0.004 -1.65287,-0.11092 -1.94998,-0.28077 -0.30915,-0.17672 -1.41177,-0.27644 -2.48005,-0.28937 z m -43.81612,0.0255 c -0.29091,-0.0159 -0.58769,0.10915 -0.92388,0.37361 -0.88488,0.69604 -0.62718,2.1363 0.45333,2.53359 0.68078,0.25033 1.4156,-0.1116 1.90282,-0.93737 0.6418,-1.08772 4.46438,-1.25302 4.96089,-0.2145 l 0.25491,0.53308 2.23861,-0.0539 2.23861,-0.0539 v -1.05417 -1.05416 l -2.10834,0.0232 c -3.03157,0.0334 -6.63457,0.35196 -7.15905,0.63265 -0.39879,0.21343 -0.5104,0.18387 -0.96881,-0.25531 -0.31306,-0.29995 -0.59817,-0.4569 -0.88909,-0.47281 z m -0.0861,0.83892 c 0.57796,0 0.93406,0.55258 0.64837,1.00626 -0.28584,0.4539 -0.73116,0.51391 -1.09721,0.14786 -0.42064,-0.42062 -0.13534,-1.15412 0.44884,-1.15412 z m 52.61405,0.76667 c 0.50821,0 0.57239,0.0645 0.57239,0.575 0,0.65362 -0.94603,0.98372 -1.16722,0.40729 -0.22971,-0.59859 0.004,-0.98229 0.59483,-0.98229 z m -70.41211,0.34253 c -0.2094,-0.0211 -0.42874,0.14521 -0.31257,0.33317 0.0578,0.0935 0.23759,0.11938 0.39941,0.0573 0.19219,-0.0737 0.22901,-0.17829 0.10632,-0.30098 -0.0549,-0.0549 -0.12336,-0.0824 -0.19316,-0.0895 z m 3.16175,1.31509 c 0.35681,0.0107 0.42637,0.21928 0.0775,0.51248 -0.47366,0.39809 0.0741,3.3149 1.35515,7.21858 1.00422,3.06005 1.13033,3.35716 1.42701,3.35716 0.3756,0 0.47952,0.27529 0.34928,0.92651 -0.23717,1.18587 -0.98822,0.82047 -1.23573,-0.6012 -0.077,-0.44241 -0.44994,-1.64587 -0.82843,-2.67435 -0.838,-2.27713 -1.81698,-5.98167 -1.97244,-7.46378 -0.11057,-1.05399 -0.0974,-1.09607 0.37996,-1.21588 0.17785,-0.0446 0.32878,-0.0631 0.44771,-0.0595 z m 82.46205,1.12305 c 0.53782,-0.003 -0.19388,3.62519 -1.4491,7.18413 -0.38568,1.09355 -0.64336,1.55114 -0.90145,1.60034 -0.45351,0.0865 -0.39585,-0.192 0.53832,-2.59461 0.37698,-0.96953 0.87947,-2.75848 1.1167,-3.97559 0.3006,-1.5425 0.51124,-2.21332 0.69553,-2.21427 z m -45.29853,8.43633 c -0.44641,-0.005 -0.89228,0.0788 -1.03809,0.25456 -0.14758,0.17782 -0.17547,0.9048 -0.0891,2.31647 0.1213,1.98303 0.14386,2.06351 0.61919,2.24422 0.72775,0.27671 0.78211,0.45788 0.78537,2.61483 l 0.004,1.97245 -0.76669,0.75132 c -1.07546,1.05413 -1.04404,2.11492 0.0767,2.59985 1.77858,0.76955 2.79826,-1.0127 1.43717,-2.51188 -0.28767,-0.31685 -0.32258,-0.51689 -0.18383,-1.05417 0.30106,-1.16569 0.46667,-8.58748 0.19879,-8.91026 -0.1485,-0.17891 -0.59575,-0.27254 -1.0422,-0.27739 z m 6.50918,0.0913 -0.0334,5.0481 c -0.0284,4.29441 -0.0785,5.09769 -0.33543,5.38164 -0.48093,0.53142 -0.383,1.45807 0.20289,1.91892 0.27774,0.21848 0.65429,0.39718 0.8367,0.39718 0.99367,0 1.81192,-1.70205 1.10208,-2.29251 -0.13177,-0.10961 -0.43118,-0.35013 -0.66561,-0.53457 -0.39435,-0.31029 -0.42838,-0.505 -0.45408,-2.60323 -0.0291,-2.38834 0.018,-2.54896 0.78426,-2.65151 l 0.47917,-0.064 v -2.30001 -2.3 h -0.95834 z m 34.30277,1.27466 c 0.19457,-0.0625 0.74551,0.18344 2.03982,0.86587 1.53568,0.8097 1.7459,0.87243 2.21053,0.66072 0.66254,-0.30187 1.25096,0.15228 0.90778,0.70041 -0.29999,0.4792 -1.03936,0.4954 -1.70251,0.0374 -0.31625,-0.2184 -1.24344,-0.73842 -2.06042,-1.15561 -0.81698,-0.4172 -1.48543,-0.84399 -1.48543,-0.94823 0,-0.0846 0.0253,-0.13976 0.0902,-0.16059 z m 3.92692,5.38127 c -0.23342,-0.0335 -0.4919,0.006 -0.74869,0.143 -0.44649,0.23895 -0.54941,1.30589 -0.16323,1.69206 0.41469,0.41467 1.26669,0.27209 1.62284,-0.27141 0.46493,-0.70962 -0.0108,-1.46315 -0.71092,-1.56365 z m -81.66692,0.14824 c -0.99826,0 -1.46982,1.02647 -0.80784,1.75795 0.69004,0.76248 1.79088,0.32978 1.79088,-0.70378 0,-0.7325 -0.3,-1.05417 -0.98304,-1.05417 z m 75.30299,0.31633 c 0.24704,-0.15267 1.00514,0.41437 1.00514,0.75169 0,0.33813 -4.11992,5.14441 -5.61524,6.55074 -0.58846,0.55343 -1.15644,1.00625 -1.26193,1.00625 -0.61309,0 -0.2543,-0.57807 1.20726,-1.94549 2.3611,-2.20908 4.74847,-5.22017 4.60189,-5.80429 -0.0621,-0.24745 -0.0338,-0.49909 0.0629,-0.5589 z m -31.20764,3.55631 c 0.234,-0.006 0.46149,0.10817 0.58812,0.34478 0.16441,0.3073 0.16192,0.47472 -0.0107,0.68244 -0.50967,0.61413 -1.62146,0.0132 -1.20505,-0.65137 0.1528,-0.24379 0.39344,-0.36983 0.62744,-0.37585 z m -6.74843,0.0584 c 0.49862,0.15122 0.79434,0.71683 0.42865,1.15749 -0.23044,0.27765 -0.64098,0.33428 -1.0946,0.15124 -0.38645,-0.15593 -0.29535,-1.17118 0.11681,-1.30199 0.1943,-0.0617 0.38296,-0.0571 0.54914,-0.007 z m -21.49099,7.50683 c -0.31347,-0.12029 -0.49788,0.0209 -0.49788,0.38146 0,0.14055 0.17249,0.25568 0.38333,0.25568 0.43581,0 0.52223,-0.4807 0.11455,-0.63714 z m 41.91029,4.10361 c 0.21199,3.5e-4 0.39225,0.11827 0.51849,0.35414 0.52183,0.97508 -0.0249,1.78532 -0.84306,1.2492 -0.55022,-0.3605 -0.44561,-0.38028 -3.07941,0.58511 -1.05417,0.3864 -2.86543,0.94753 -4.02498,1.24695 -3.35634,0.8667 -4.47192,0.93948 -3.9041,0.25531 0.11743,-0.14147 0.45585,-0.25718 0.75207,-0.25718 1.445,0 9.14329,-2.40288 9.87273,-3.08164 0.25261,-0.23508 0.49632,-0.35233 0.70826,-0.35189 z m -40.13437,0.48291 c 1.24943,-0.14185 2.26546,1.3865 1.31993,2.46097 -0.66027,0.75034 -1.47687,0.82484 -2.21689,0.20215 -0.9377,-0.78903 -0.77969,-1.90817 0.35227,-2.49354 0.18298,-0.0946 0.3662,-0.14931 0.54469,-0.16958 z m 46.64466,0.49414 c -0.49521,-0.0253 -1.06568,0.22225 -1.36746,0.75993 -0.25254,0.44991 -0.24766,0.55481 0.0464,1.00363 0.69591,1.06209 2.23596,0.45096 2.23596,-0.88721 0,-0.55309 -0.41967,-0.85106 -0.91491,-0.87635 z m -20.04264,1.50189 c 0.0442,-0.0474 0.0943,-0.039 0.15161,0.0183 0.0472,0.0472 0.14638,0.88446 0.22011,1.86089 0.10715,1.41975 0.20247,1.81212 0.47618,1.95859 0.45919,0.24576 0.62813,0.8479 0.37211,1.32632 -0.24893,0.4651 -0.90468,0.50542 -1.49479,0.0921 -0.42615,-0.29848 -0.57246,-0.93004 -0.2602,-1.12305 0.0913,-0.0564 0.20772,-0.96838 0.25871,-2.02672 0.0636,-1.32123 0.14347,-1.9643 0.27627,-2.10647 z m -6.93111,0.0719 c 0.0357,-0.002 0.0714,0.0137 0.10707,0.0494 0.11516,0.11516 0.13093,0.69472 0.0408,1.50114 -0.18609,1.66526 -0.62594,1.9567 -0.62594,0.41478 0,-1.06772 0.22944,-1.95213 0.47805,-1.96533 z m -1.92677,3.07153 c 0.21705,0.0583 0.54247,0.10665 0.72323,0.10856 0.52854,0.004 0.79922,0.70403 0.52674,1.36188 -0.29162,0.70402 -0.86528,0.72945 -1.57604,0.0704 -0.60821,-0.56396 -0.59145,-0.49925 -0.29684,-1.14588 0.17056,-0.37432 0.32799,-0.47413 0.62291,-0.39494 z m 0.29872,1.06952 c -0.10541,0 -0.19165,0.0863 -0.19165,0.19166 0,0.10542 0.0862,0.19167 0.19165,0.19167 0.10542,0 0.19169,-0.0863 0.19169,-0.19167 0,-0.10541 -0.0863,-0.19166 -0.19169,-0.19166 z m 4.98336,1.34166 c -0.95957,0 -1.4336,1.04314 -0.85166,1.874 0.35665,0.5092 1.15095,0.56167 1.65126,0.10893 0.72449,-0.65567 0.18927,-1.98293 -0.7996,-1.98293 z" /></g><g
             id="g46395"><path
               style="fill:#152238;fill-opacity:1;stroke-width:0.356755"
               d="m 241.04349,413.14834 v 0.9336 0.93164 l 0.74804,1.33007 0.7461,1.32813 1.10156,0.65039 1.10156,0.65039 1.09375,0.26367 1.09571,0.26172 98.82031,0.0273 98.82226,0.0274 1.39844,-0.32422 1.40039,-0.32422 0.89649,-0.66992 0.89843,-0.66992 0.65625,-0.87891 0.6543,-0.87695 0.2168,-1.33008 0.21484,-1.33008 H 345.97708 Z"
               id="path40154" /><g
               id="g46373"><path
                 style="fill:#152238;fill-opacity:1;stroke-width:0.356755"
                 d="m 385.79247,282.50899 -2.77344,2.75586 -2.77148,2.75586 v 0.26757 0.26563 l 18.35937,0.0996 18.36133,0.0977 0.61523,0.61718 0.61524,0.61524 0.15625,3.30859 0.1543,3.68359 0.0254,0.17579 0.0586,0.11328 5.74609,0.002 0.0293,-0.0586 0.041,-4.17578 0.10156,-3.92383 -0.56641,-1.48828 -0.56836,-1.48828 -1.54882,-1.42774 -1.54883,-1.42773 -1.375,-0.38282 -1.37696,-0.38086 -15.86718,-0.002 z"
                 id="path40140" /><path
                 id="path40174"
                 style="fill:#152238;fill-opacity:1;stroke-width:0.356755"
                 d="m 370.85369,282.5504 -49.32031,0.002 -49.32227,0.002 -1.375,0.38086 -1.375,0.38281 -1.54882,1.42774 -1.55079,1.42773 -0.5625,1.48828 -0.5625,1.48829 0.0977,43.76171 0.0996,43.75977 1.07031,1.51367 1.07032,1.51367 0.9121,0.67578 0.91211,0.67774 1.40625,0.5 1.41016,0.50195 72.82227,0.0156 72.82226,0.0156 1.53516,-0.54297 1.53711,-0.54101 1.22656,-0.9375 1.22852,-0.93555 0.85742,-1.87305 0.85742,-1.87109 -0.0977,-6.19336 -0.0996,-6.19141 h -2.85351 l -3.33985,-0.0898 0.043,2.8418 0.0859,2.7539 -0.63672,0.63672 -0.63672,0.63477 -56.95508,0.0937 -56.95703,0.0957 -0.56054,-0.004 -0.58008,0.0176 0.12695,-0.12695 h -16.5332 l -0.15825,0.34575 -0.11914,-0.006 -10.6211,-0.10155 0.10547,-0.0292 -0.0957,-0.0312 h -0.0117 l -2.77539,-0.68164 0.01,0.0195 -0.56054,-0.46484 -0.5586,-0.46289 V 356.86482 345.2906 l 0.0859,-0.0859 0.0156,-14.13672 h -0.12109 l 0.0977,-20.5 0.0976,-20.5 0.63672,-0.63672 0.63672,-0.63867 46.27344,-0.0918 46.27148,-0.0937 2.76953,-2.75196 2.76758,-2.7539 v -0.27539 z" /></g><path
               style="fill:#ffc42b;fill-opacity:1;stroke-width:0.361075"
               d="m 241.73867,412.05123 c -0.34752,-0.0913 -0.63188,-0.40017 -0.63188,-0.68633 0,-0.52402 2.95438,-3.46625 5.55603,-5.53314 l 1.40368,-1.11515 h 43.49796 43.49794 l 1.07279,0.9027 c 1.30546,1.09849 2.07009,1.13406 3.31563,0.15432 1.18725,-0.93388 1.30113,-2.795 0.23033,-3.7641 -1.0552,-0.95492 -2.90333,-0.79186 -3.80226,0.33551 l -0.73464,0.92136 -42.50534,0.0932 c -23.37789,0.0512 -42.50529,-0.008 -42.50527,-0.13168 0,-0.12367 1.21914,-1.38292 2.70915,-2.79832 1.69287,-1.60805 3.01353,-2.57555 3.52048,-2.57913 0.44624,-0.003 20.30883,0 44.13912,0.006 l 43.32783,0.0113 3.34812,3.33429 3.34814,3.33427 37.2556,0.0952 c 20.49061,0.0524 37.34504,0.2243 37.45438,0.38198 0.41391,0.59714 2.01046,1.50864 2.64249,1.50864 1.02313,0 2.43075,-1.63086 2.43075,-2.81624 0,-2.2877 -2.99619,-3.20651 -4.55325,-1.3963 l -0.82824,0.96288 h -36.03683 c -22.36086,0 -36.50335,-0.13379 -37.26601,-0.35252 -0.77537,-0.22236 -2.39027,-1.48875 -4.37427,-3.43021 l -3.14517,-3.07768 h -43.01431 c -25.47306,0 -43.01433,-0.13347 -43.01433,-0.32729 0,-0.56658 5.18113,-5.16784 6.39746,-5.68143 0.96733,-0.40849 14.56188,-0.49062 81.18716,-0.49062 h 80.02522 l 1.20172,0.57025 c 0.66091,0.31361 2.63526,1.88086 4.38745,3.48277 1.75214,1.6019 6.51666,5.82594 10.58777,9.38674 7.67467,6.71266 8.98887,8.02195 8.52125,8.48958 -0.29001,0.29001 -207.5484,0.49791 -208.64665,0.20931 z"
               id="path39800" /><path
               style="fill:#ffffff;stroke-width:0.356755"
               d="m 340.43085,375.1542 h 4.73829 4.73828 l 0.375,0.59375 0.375,0.5957 -0.46875,0.56446 -0.46875,0.56445 h -4.55078 -4.55079 l -0.46874,-0.56445 -0.46876,-0.56446 0.375,-0.5957 z"
               id="path40152" /><path
               style="font-variation-settings:'wght' 800;fill:#008cba;fill-opacity:1;stroke:none;stroke-width:0;stroke-dasharray:none;stroke-opacity:1;stop-color:#000000"
               d="m 251.61953,400.62019 3.09359,0.19887"
               id="path39428" /><g
               id="g44811"><g
                 id="g44537"
                 transform="translate(169.70563,105.83378)"><path
                   id="path39186"
                   style="fill:none;stroke:#ffc42b;stroke-width:0.5;stroke-dasharray:none;stroke-opacity:1"
                   d="m 116.63421,264.17099 16.10351,-0.27344 11.31641,-10.60742 10.44336,-10.42187 h 8.18164 8.18164 l 20.17774,-20.15625 20.17578,-20.15625 h 1.47461 1.47461 l 0.95898,-1.14063 0.95898,-1.14062 -0.19921,-1.22266 -0.19727,-1.22266 -0.58789,-0.65039 -0.58789,-0.64843 -0.9707,-0.2129 -0.97071,-0.21289 -1.01562,0.38477 -1.01367,0.38476 -0.4629,0.61133 -0.46484,0.60938 -0.01,1.43164 -0.0117,1.43164 -20.06836,20.03125 -20.06641,20.03125 -6.1543,-0.0293 -6.15429,-0.0312 v -0.38086 -0.38281 l 15.78515,-15.78906 15.78516,-15.78711 h 1.3125 1.31445 l 0.75977,-0.9668 0.75976,-0.96484 -0.22265,-0.9082 -0.22266,-0.90626 -0.42187,-0.42187 -0.42188,-0.42383 -0.9082,-0.2207 -0.9082,-0.22266 -0.96485,0.75977 -0.96484,0.75976 v 1.3125 1.31446 l -16.5918,16.58789 -16.5918,16.58594 -6.86523,0.0664 -6.86523,0.0645 -0.70118,0.0234 -0.70117,0.0254 -11.43945,11.41992 z" /><path
                   id="path40164"
                   style="fill:none;stroke:#ffc42b;stroke-width:0.5;stroke-dasharray:none;stroke-opacity:1"
                   d="m 101.84905,225.48349 0.008,14.02344 10.17382,-10.04102 10.1836,-10.14453 h 7.14258 7.14453 l 0.77929,-0.39453 0.7793,-0.39258 12.86523,-12.82812 12.86524,-12.82618 1.33984,-0.12304 1.33985,-0.125 0.68945,-0.625 0.68945,-0.62305 v -0.93555 -0.93554 l -0.55664,-0.79297 -0.55469,-0.79297 h -1.36328 -1.36328 l -0.43164,0.52148 -0.43359,0.52149 -0.18555,1.52929 -0.18555,1.53126 -12.53515,12.59765 -12.53711,12.59961 -0.96289,0.51172 -0.96289,0.51172 h -5.9043 -5.9043 v -0.28906 -0.28907 l 4.87305,-4.89843 4.875,-4.9004 0.56641,0.23243 0.5664,0.23437 1.4375,0.17578 1.4375,0.17774 1.32032,-0.55078 1.31835,-0.55274 0.72071,-1.17969 0.71875,-1.18164 v -1.37304 -1.37305 l -0.56836,-1.19727 -0.56836,-1.19726 -1.50586,-0.73047 -1.50586,-0.72852 -0.69141,0.008 -0.68945,0.008 -1.53125,0.69531 -1.53125,0.69531 -0.7207,1.62891 -0.72071,1.62891 0.44141,1.97265 0.44141,1.97071 -5.5,5.50781 -5.49805,5.50586 h -6.03125 -6.03125 l -3.72656,3.66602 -3.86719,3.55859 -0.40429,0.008 z" /><path
                   id="path40169"
                   style="fill:none;stroke:#ffc42b;stroke-width:0.5;stroke-dasharray:none;stroke-opacity:1"
                   d="m 217.41546,161.17099 -1.16602,0.48633 -1.16406,0.48633 -0.95508,1.13476 -0.95508,1.13477 -0.38085,1.41211 -0.37891,1.41015 0.44531,2.15821 0.44531,2.15625 -21.04101,21.03125 -21.03906,21.0332 h -8.66993 -8.66797 l -0.77929,0.39258 -0.7793,0.39453 -24.68164,24.64258 -24.42383,24.35741 2.18165,0.55664 24.7246,-24.21874 23.9961,-23.98438 h 8.91015 8.91211 l 21.47071,-21.46875 21.47265,-21.4707 1.40235,0.42188 1.40429,0.41992 h 1.3086 1.30664 l 1.16601,-0.48633 1.16406,-0.48633 0.95508,-1.13476 0.95508,-1.13672 0.37305,-1.38672 0.37304,-1.38477 -0.33984,-1.51367 -0.33984,-1.51172 -0.68164,-0.91992 -0.68164,-0.91992 -1.39454,-0.79688 -1.39257,-0.79687 -1.52735,-0.006 z" /></g><path
                 style="font-variation-settings:'wght' 800;opacity:1;fill:none;fill-opacity:1;stroke:#ffc42b;stroke-width:0.5;stroke-dasharray:none;stroke-opacity:1;stop-color:#000000"
                 d="M 322.52145,348.44822 309.625,348.5 289.28125,368.84375 301.625,368.5625 Z"
                 id="path44593" /><path
                 style="font-variation-settings:'wght' 800;opacity:1;fill:none;fill-opacity:1;stroke:#ffc42b;stroke-width:0.4;stroke-dasharray:none;stroke-opacity:1;stop-color:#000000"
                 d="m 290.65625,325.09375 h -10.875 l -7.1875,6.8125 0.0625,10.96875 z"
                 id="path44597" /><circle
                 style="font-variation-settings:'wght' 800;opacity:1;fill:#ffc42b;fill-opacity:1;stroke:none;stroke-width:0.417007;stroke-dasharray:none;stroke-opacity:1;stop-color:#000000"
                 id="path44651"
                 cx="306.56741"
                 cy="309.5726"
                 r="2.8565357" /><circle
                 style="font-variation-settings:'wght' 800;fill:#ffc42b;fill-opacity:1;stroke:none;stroke-width:0.184749;stroke-dasharray:none;stroke-opacity:1;stop-color:#000000"
                 id="path44651-6"
                 cx="335.12442"
                 cy="296.05676"
                 r="1.2655454" /><circle
                 style="font-variation-settings:'wght' 800;fill:#ffc42b;fill-opacity:1;stroke:none;stroke-width:0.208943;stroke-dasharray:none;stroke-opacity:1;stop-color:#000000"
                 id="path44651-6-8"
                 cx="359.86212"
                 cy="312.11029"
                 r="1.4312736" /><circle
                 style="font-variation-settings:'wght' 800;fill:#ffc42b;fill-opacity:1;stroke:none;stroke-width:0.57346;stroke-dasharray:none;stroke-opacity:1;stop-color:#000000"
                 id="path44651-6-8-9"
                 cx="388.4447"
                 cy="273.18625"
                 r="3.9282444" /><circle
                 style="font-variation-settings:'wght' 800;fill:#ffc42b;fill-opacity:1;stroke:none;stroke-width:0.263244;stroke-dasharray:none;stroke-opacity:1;stop-color:#000000"
                 id="path44651-6-8-9-2"
                 cx="382.44174"
                 cy="305.16281"
                 r="1.8032444" /></g><circle
               style="font-variation-settings:'wght' 800;opacity:1;fill:#ffffff;fill-opacity:1;stroke:none;stroke-width:0.4;stroke-dasharray:none;stroke-opacity:1;stop-color:#000000"
               id="path46317"
               cx="345.16913"
               cy="285.5"
               r="1" /></g></g><text
           xml:space="preserve"
           style="font-size:34.0095px;font-family:'Open Sans';-inkscape-font-specification:'Open Sans, @wght=800';font-variation-settings:'wght' 800;text-align:center;text-anchor:middle;fill:#152238;fill-opacity:1;stroke:none;stroke-width:0.166114;stroke-dasharray:none;stroke-opacity:1;stop-color:#000000"
           x="489.18982"
           y="438.11813"
           id="text46477"
           transform="scale(1.049336,0.95298359)"><tspan
             id="tspan46475"
             x="489.18982"
             y="438.11813"
             style="fill:#152238;fill-opacity:1;stroke-width:0.166114">Soluções Tecnológicas</tspan></text></g></g></g></svg>
